<?xml version="1.0" standalone="no"?>
 <!DOCTYPE svg PUBLIC "-//W3C//DTD SVG 1.1//EN" 
 "http://www.w3.org/Graphics/SVG/1.1/DTD/svg11.dtd"> 
<svg xmlns="http://www.w3.org/2000/svg" version="1.1" 
    width="29.7002cm" height="21.0007cm" viewBox="0 0 116930 82680 ">
<title>SVG Picture created as WS2811 Expander-F.Paste.svg date 2019/04/26 12:58:28 </title>
  <desc>Picture generated by PCBNEW </desc>
<g style="fill:#000000; fill-opacity:1;stroke:#000000; stroke-opacity:1;
stroke-linecap:round; stroke-linejoin:round; "
 transform="translate(0 0) scale(1 1)">
</g>
<g style="fill:#000000; fill-opacity:0.0; 
stroke:#000000; stroke-width:-0.000393701; stroke-opacity:1; 
stroke-linecap:round; stroke-linejoin:round;">
</g>
<g style="fill:#000000; fill-opacity:0.0; 
stroke:#000000; stroke-width:0; stroke-opacity:1; 
stroke-linecap:round; stroke-linejoin:round;">
</g>
<g style="fill:#000000; fill-opacity:1.0; 
stroke:#000000; stroke-width:0; stroke-opacity:1; 
stroke-linecap:round; stroke-linejoin:round;">
<polyline style="fill-rule:evenodd;"
points="61480,16866
61480,17948
60279,17948
60279,16866
61480,16866
" /> 
<polyline style="fill-rule:evenodd;"
points="60161,18066
60161,19149
58960,19149
58960,18066
60161,18066
" /> 
<polyline style="fill-rule:evenodd;"
points="61480,18066
61480,19149
60279,19149
60279,18066
61480,18066
" /> 
<polyline style="fill-rule:evenodd;"
points="60161,16866
60161,17948
58960,17948
58960,16866
60161,16866
" /> 
<polyline style="fill-rule:evenodd;"
points="63133,16874
63133,17346
62267,17346
62267,16874
63133,16874
" /> 
<polyline style="fill-rule:evenodd;"
points="63133,18669
63133,19141
62267,19141
62267,18669
63133,18669
" /> 
<polyline style="fill-rule:evenodd;"
points="63133,15818
63133,16291
62267,16291
62267,15818
63133,15818
" /> 
<polyline style="fill-rule:evenodd;"
points="63133,14023
63133,14496
62267,14496
62267,14023
63133,14023
" /> 
<polyline style="fill-rule:evenodd;"
points="60161,14015
60161,15098
58960,15098
58960,14015
60161,14015
" /> 
<polyline style="fill-rule:evenodd;"
points="61480,15216
61480,16299
60279,16299
60279,15216
61480,15216
" /> 
<polyline style="fill-rule:evenodd;"
points="60161,15216
60161,16299
58960,16299
58960,15216
60161,15216
" /> 
<polyline style="fill-rule:evenodd;"
points="61480,14015
61480,15098
60279,15098
60279,14015
61480,14015
" /> 
<polyline style="fill-rule:evenodd;"
points="61480,11165
61480,12248
60279,12248
60279,11165
61480,11165
" /> 
<polyline style="fill-rule:evenodd;"
points="60161,12366
60161,13448
58960,13448
58960,12366
60161,12366
" /> 
<polyline style="fill-rule:evenodd;"
points="61480,12366
61480,13448
60279,13448
60279,12366
61480,12366
" /> 
<polyline style="fill-rule:evenodd;"
points="60161,11165
60161,12248
58960,12248
58960,11165
60161,11165
" /> 
<polyline style="fill-rule:evenodd;"
points="63133,11173
63133,11645
62267,11645
62267,11173
63133,11173
" /> 
<polyline style="fill-rule:evenodd;"
points="63133,12968
63133,13440
62267,13440
62267,12968
63133,12968
" /> 
<polyline style="fill-rule:evenodd;"
points="54562,11468
54562,10956
54838,10956
54838,11468
54562,11468
" /> 
<polyline style="fill-rule:evenodd;"
points="55311,11468
55311,10956
55586,10956
55586,11468
55311,11468
" /> 
<polyline style="fill-rule:evenodd;"
points="56015,14933
56015,15444
55740,15444
55740,14933
56015,14933
" /> 
<polyline style="fill-rule:evenodd;"
points="55267,14933
55267,15444
54992,15444
54992,14933
55267,14933
" /> 
<polyline style="fill-rule:evenodd;"
points="53633,15444
53633,14933
53909,14933
53909,15444
53633,15444
" /> 
<polyline style="fill-rule:evenodd;"
points="54381,15444
54381,14933
54657,14933
54657,15444
54381,15444
" /> 
<polyline style="fill-rule:evenodd;"
points="57456,19500
57456,18988
57732,18988
57732,19500
57456,19500
" /> 
<polyline style="fill-rule:evenodd;"
points="58204,19500
58204,18988
58480,18988
58480,19500
58204,19500
" /> 
<polyline style="fill-rule:evenodd;"
points="57456,16539
57456,16027
57732,16027
57732,16539
57456,16539
" /> 
<polyline style="fill-rule:evenodd;"
points="58204,16539
58204,16027
58480,16027
58480,16539
58204,16539
" /> 
<polyline style="fill-rule:evenodd;"
points="57456,13559
57456,13047
57732,13047
57732,13559
57456,13559
" /> 
<polyline style="fill-rule:evenodd;"
points="58204,13559
58204,13047
58480,13047
58480,13559
58204,13559
" /> 
<polyline style="fill-rule:evenodd;"
points="55149,14572
55149,14080
55543,14080
55543,14572
55149,14572
" /> 
<polyline style="fill-rule:evenodd;"
points="54362,14572
54362,14080
54755,14080
54755,14572
54362,14572
" /> 
<polyline style="fill-rule:evenodd;"
points="58185,18311
58185,17996
58539,17996
58539,18311
58185,18311
" /> 
<polyline style="fill-rule:evenodd;"
points="57397,18685
57397,18370
57751,18370
57751,18685
57397,18685
" /> 
<polyline style="fill-rule:evenodd;"
points="57397,17937
57397,17622
57751,17622
57751,17937
57397,17937
" /> 
<polyline style="fill-rule:evenodd;"
points="56177,12088
55744,12088
55744,11891
56177,11891
56177,12088
" /> 
<polyline style="fill-rule:evenodd;"
points="54129,12088
53696,12088
53696,11891
54129,11891
54129,12088
" /> 
<polyline style="fill-rule:evenodd;"
points="56177,12588
55744,12588
55744,12391
56177,12391
56177,12588
" /> 
<polyline style="fill-rule:evenodd;"
points="56177,13088
55744,13088
55744,12891
56177,12891
56177,13088
" /> 
<polyline style="fill-rule:evenodd;"
points="56177,13588
55744,13588
55744,13391
56177,13391
56177,13588
" /> 
<polyline style="fill-rule:evenodd;"
points="54129,12588
53696,12588
53696,12391
54129,12391
54129,12588
" /> 
<polyline style="fill-rule:evenodd;"
points="54129,13088
53696,13088
53696,12891
54129,12891
54129,13088
" /> 
<polyline style="fill-rule:evenodd;"
points="54129,13588
53696,13588
53696,13391
54129,13391
54129,13588
" /> 
<polyline style="fill-rule:evenodd;"
points="57397,14962
57397,14647
57751,14647
57751,14962
57397,14962
" /> 
<polyline style="fill-rule:evenodd;"
points="57397,15710
57397,15395
57751,15395
57751,15710
57397,15710
" /> 
<polyline style="fill-rule:evenodd;"
points="58185,15336
58185,15021
58539,15021
58539,15336
58185,15336
" /> 
<polyline style="fill-rule:evenodd;"
points="58185,12362
58185,12047
58539,12047
58539,12362
58185,12362
" /> 
<polyline style="fill-rule:evenodd;"
points="57397,12736
57397,12421
57751,12421
57751,12736
57397,12736
" /> 
<polyline style="fill-rule:evenodd;"
points="57397,11988
57397,11673
57751,11673
57751,11988
57397,11988
" /> 
<polyline style="fill-rule:evenodd;"
points="57070,18677
56559,18677
56559,18401
57070,18401
57070,18677
" /> 
<polyline style="fill-rule:evenodd;"
points="57070,17929
56559,17929
56559,17653
57070,17653
57070,17929
" /> 
<polyline style="fill-rule:evenodd;"
points="57094,14956
56582,14956
56582,14681
57094,14681
57094,14956
" /> 
<polyline style="fill-rule:evenodd;"
points="57094,15704
56582,15704
56582,15429
57094,15429
57094,15704
" /> 
<polyline style="fill-rule:evenodd;"
points="57086,12748
56574,12748
56574,12472
57086,12472
57086,12748
" /> 
<polyline style="fill-rule:evenodd;"
points="57086,12000
56574,12000
56574,11724
57086,11724
57086,12000
" /> 
<polyline style="fill-rule:evenodd;"
points="58480,16791
58480,17303
58204,17303
58204,16791
58480,16791
" /> 
<polyline style="fill-rule:evenodd;"
points="57732,16791
57732,17303
57456,17303
57456,16791
57732,16791
" /> 
<polyline style="fill-rule:evenodd;"
points="58480,13811
58480,14322
58204,14322
58204,13811
58480,13811
" /> 
<polyline style="fill-rule:evenodd;"
points="57732,13811
57732,14322
57456,14322
57456,13811
57732,13811
" /> 
<polyline style="fill-rule:evenodd;"
points="57748,10838
57748,11350
57472,11350
57472,10838
57748,10838
" /> 
<polyline style="fill-rule:evenodd;"
points="58496,10838
58496,11350
58220,11350
58220,10838
58496,10838
" /> 
</g> 
</svg>
