<?xml version="1.0" standalone="no"?>
 <!DOCTYPE svg PUBLIC "-//W3C//DTD SVG 1.1//EN" 
 "http://www.w3.org/Graphics/SVG/1.1/DTD/svg11.dtd"> 
<svg xmlns="http://www.w3.org/2000/svg" version="1.1" 
    width="29.7002cm" height="21.0007cm" viewBox="0 0 116930 82680 ">
<title>SVG Picture created as WS2811 Expander-F.Cu.svg date 2019/06/14 16:15:48 </title>
  <desc>Picture generated by PCBNEW </desc>
<g style="fill:#000000; fill-opacity:1;stroke:#000000; stroke-opacity:1;
stroke-linecap:round; stroke-linejoin:round; "
 transform="translate(0 0) scale(1 1)">
</g>
<g style="fill:#000000; fill-opacity:0.0; 
stroke:#000000; stroke-width:-0.000393701; stroke-opacity:1; 
stroke-linecap:round; stroke-linejoin:round;">
</g>
<g style="fill:#000000; fill-opacity:0.0; 
stroke:#000000; stroke-width:0; stroke-opacity:1; 
stroke-linecap:round; stroke-linejoin:round;">
</g>
<g style="fill:#000000; fill-opacity:1.0; 
stroke:#000000; stroke-width:0; stroke-opacity:1; 
stroke-linecap:round; stroke-linejoin:round;">
<polyline style="fill-rule:evenodd;"
points="54413,10157
53744,10157
53744,9488
54413,9488
54413,10157
" /> 
</g>
<g style="fill:#000000; fill-opacity:1.0; 
stroke:#000000; stroke-width:669.291; stroke-opacity:1; 
stroke-linecap:round; stroke-linejoin:round;">
</g>
<g style="fill:#000000; fill-opacity:0.0; 
stroke:#000000; stroke-width:669.291; stroke-opacity:1; 
stroke-linecap:round; stroke-linejoin:round;">
<path d="M55078 9822
L55078 9822
" />
<path d="M56078 9822
L56078 9822
" />
<path d="M57078 9822
L57078 9822
" />
<path d="M58078 9822
L58078 9822
" />
<path d="M59078 9822
L59078 9822
" />
</g>
<g style="fill:#000000; fill-opacity:0.0; 
stroke:#000000; stroke-width:0; stroke-opacity:1; 
stroke-linecap:round; stroke-linejoin:round;">
</g>
<g style="fill:#000000; fill-opacity:1.0; 
stroke:#000000; stroke-width:0; stroke-opacity:1; 
stroke-linecap:round; stroke-linejoin:round;">
<polyline style="fill-rule:evenodd;"
points="55940,17456
55940,18125
55271,18125
55271,17456
55940,17456
" /> 
</g>
<g style="fill:#000000; fill-opacity:1.0; 
stroke:#000000; stroke-width:669.291; stroke-opacity:1; 
stroke-linecap:round; stroke-linejoin:round;">
</g>
<g style="fill:#000000; fill-opacity:0.0; 
stroke:#000000; stroke-width:669.291; stroke-opacity:1; 
stroke-linecap:round; stroke-linejoin:round;">
<path d="M55606 16791
L55606 16791
" />
</g>
<g style="fill:#000000; fill-opacity:0.0; 
stroke:#000000; stroke-width:0; stroke-opacity:1; 
stroke-linecap:round; stroke-linejoin:round;">
</g>
<g style="fill:#000000; fill-opacity:1.0; 
stroke:#000000; stroke-width:0; stroke-opacity:1; 
stroke-linecap:round; stroke-linejoin:round;">
<polyline style="fill-rule:evenodd;"
points="54452,17456
54452,18125
53783,18125
53783,17456
54452,17456
" /> 
</g>
<g style="fill:#000000; fill-opacity:1.0; 
stroke:#000000; stroke-width:669.291; stroke-opacity:1; 
stroke-linecap:round; stroke-linejoin:round;">
</g>
<g style="fill:#000000; fill-opacity:0.0; 
stroke:#000000; stroke-width:669.291; stroke-opacity:1; 
stroke-linecap:round; stroke-linejoin:round;">
<path d="M54118 16791
L54118 16791
" />
</g>
<g style="fill:#000000; fill-opacity:0.0; 
stroke:#000000; stroke-width:0; stroke-opacity:1; 
stroke-linecap:round; stroke-linejoin:round;">
</g>
<g style="fill:#000000; fill-opacity:1.0; 
stroke:#000000; stroke-width:0; stroke-opacity:1; 
stroke-linecap:round; stroke-linejoin:round;">
<polyline style="fill-rule:evenodd;"
points="61480,16866
61480,17948
60279,17948
60279,16866
61480,16866
" /> 
<polyline style="fill-rule:evenodd;"
points="60161,18066
60161,19149
58960,19149
58960,18066
60161,18066
" /> 
<polyline style="fill-rule:evenodd;"
points="61480,18066
61480,19149
60279,19149
60279,18066
61480,18066
" /> 
<polyline style="fill-rule:evenodd;"
points="60161,16866
60161,17948
58960,17948
58960,16866
60161,16866
" /> 
<polyline style="fill-rule:evenodd;"
points="61480,16866
61480,19149
58960,19149
58960,16866
61480,16866
" /> 
<polyline style="fill-rule:evenodd;"
points="63133,16874
63133,17346
62267,17346
62267,16874
63133,16874
" /> 
<polyline style="fill-rule:evenodd;"
points="63133,18669
63133,19141
62267,19141
62267,18669
63133,18669
" /> 
<polyline style="fill-rule:evenodd;"
points="63133,15818
63133,16291
62267,16291
62267,15818
63133,15818
" /> 
<polyline style="fill-rule:evenodd;"
points="63133,14023
63133,14496
62267,14496
62267,14023
63133,14023
" /> 
<polyline style="fill-rule:evenodd;"
points="61480,14015
61480,16299
58960,16299
58960,14015
61480,14015
" /> 
<polyline style="fill-rule:evenodd;"
points="60161,14015
60161,15098
58960,15098
58960,14015
60161,14015
" /> 
<polyline style="fill-rule:evenodd;"
points="61480,15216
61480,16299
60279,16299
60279,15216
61480,15216
" /> 
<polyline style="fill-rule:evenodd;"
points="60161,15216
60161,16299
58960,16299
58960,15216
60161,15216
" /> 
<polyline style="fill-rule:evenodd;"
points="61480,14015
61480,15098
60279,15098
60279,14015
61480,14015
" /> 
<polyline style="fill-rule:evenodd;"
points="61480,11165
61480,12248
60279,12248
60279,11165
61480,11165
" /> 
<polyline style="fill-rule:evenodd;"
points="60161,12366
60161,13448
58960,13448
58960,12366
60161,12366
" /> 
<polyline style="fill-rule:evenodd;"
points="61480,12366
61480,13448
60279,13448
60279,12366
61480,12366
" /> 
<polyline style="fill-rule:evenodd;"
points="60161,11165
60161,12248
58960,12248
58960,11165
60161,11165
" /> 
<polyline style="fill-rule:evenodd;"
points="61480,11165
61480,13448
58960,13448
58960,11165
61480,11165
" /> 
<polyline style="fill-rule:evenodd;"
points="63133,11173
63133,11645
62267,11645
62267,11173
63133,11173
" /> 
<polyline style="fill-rule:evenodd;"
points="63133,12968
63133,13440
62267,13440
62267,12968
63133,12968
" /> 
<circle cx="63661.4" cy="14255.9" r="334.646" /> 
</g>
<g style="fill:#000000; fill-opacity:1.0; 
stroke:#000000; stroke-width:39.3701; stroke-opacity:1; 
stroke-linecap:round; stroke-linejoin:round;">
</g>
<g style="fill:#000000; fill-opacity:1.0; 
stroke:#000000; stroke-width:0; stroke-opacity:1; 
stroke-linecap:round; stroke-linejoin:round;">
<polyline style="fill-rule:evenodd;"
points="54562,11468
54562,10956
54838,10956
54838,11468
54562,11468
" /> 
<polyline style="fill-rule:evenodd;"
points="55311,11468
55311,10956
55586,10956
55586,11468
55311,11468
" /> 
<polyline style="fill-rule:evenodd;"
points="56015,14933
56015,15444
55740,15444
55740,14933
56015,14933
" /> 
<polyline style="fill-rule:evenodd;"
points="55267,14933
55267,15444
54992,15444
54992,14933
55267,14933
" /> 
<polyline style="fill-rule:evenodd;"
points="53633,15444
53633,14933
53909,14933
53909,15444
53633,15444
" /> 
<polyline style="fill-rule:evenodd;"
points="54381,15444
54381,14933
54657,14933
54657,15444
54381,15444
" /> 
<polyline style="fill-rule:evenodd;"
points="57456,19500
57456,18988
57732,18988
57732,19500
57456,19500
" /> 
<polyline style="fill-rule:evenodd;"
points="58204,19500
58204,18988
58480,18988
58480,19500
58204,19500
" /> 
<polyline style="fill-rule:evenodd;"
points="57456,16539
57456,16027
57732,16027
57732,16539
57456,16539
" /> 
<polyline style="fill-rule:evenodd;"
points="58204,16539
58204,16027
58480,16027
58480,16539
58204,16539
" /> 
<polyline style="fill-rule:evenodd;"
points="57456,13559
57456,13047
57732,13047
57732,13559
57456,13559
" /> 
<polyline style="fill-rule:evenodd;"
points="58204,13559
58204,13047
58480,13047
58480,13559
58204,13559
" /> 
<circle cx="64826.8" cy="11141.7" r="590.551" /> 
</g>
<g style="fill:#000000; fill-opacity:1.0; 
stroke:#000000; stroke-width:39.3701; stroke-opacity:1; 
stroke-linecap:round; stroke-linejoin:round;">
</g>
<g style="fill:#000000; fill-opacity:1.0; 
stroke:#000000; stroke-width:0; stroke-opacity:1; 
stroke-linecap:round; stroke-linejoin:round;">
<circle cx="64826.8" cy="12700.8" r="590.551" /> 
</g>
<g style="fill:#000000; fill-opacity:1.0; 
stroke:#000000; stroke-width:39.3701; stroke-opacity:1; 
stroke-linecap:round; stroke-linejoin:round;">
</g>
<g style="fill:#000000; fill-opacity:1.0; 
stroke:#000000; stroke-width:0; stroke-opacity:1; 
stroke-linecap:round; stroke-linejoin:round;">
<circle cx="64826.8" cy="14259.8" r="590.551" /> 
</g>
<g style="fill:#000000; fill-opacity:1.0; 
stroke:#000000; stroke-width:39.3701; stroke-opacity:1; 
stroke-linecap:round; stroke-linejoin:round;">
</g>
<g style="fill:#000000; fill-opacity:1.0; 
stroke:#000000; stroke-width:0; stroke-opacity:1; 
stroke-linecap:round; stroke-linejoin:round;">
<circle cx="64826.8" cy="15818.9" r="590.551" /> 
</g>
<g style="fill:#000000; fill-opacity:1.0; 
stroke:#000000; stroke-width:39.3701; stroke-opacity:1; 
stroke-linecap:round; stroke-linejoin:round;">
</g>
<g style="fill:#000000; fill-opacity:1.0; 
stroke:#000000; stroke-width:0; stroke-opacity:1; 
stroke-linecap:round; stroke-linejoin:round;">
<circle cx="64826.8" cy="17378" r="590.551" /> 
</g>
<g style="fill:#000000; fill-opacity:1.0; 
stroke:#000000; stroke-width:39.3701; stroke-opacity:1; 
stroke-linecap:round; stroke-linejoin:round;">
</g>
<g style="fill:#000000; fill-opacity:1.0; 
stroke:#000000; stroke-width:0; stroke-opacity:1; 
stroke-linecap:round; stroke-linejoin:round;">
<circle cx="64826.8" cy="18937" r="590.551" /> 
</g>
<g style="fill:#000000; fill-opacity:1.0; 
stroke:#000000; stroke-width:39.3701; stroke-opacity:1; 
stroke-linecap:round; stroke-linejoin:round;">
</g>
<g style="fill:#000000; fill-opacity:1.0; 
stroke:#000000; stroke-width:0; stroke-opacity:1; 
stroke-linecap:round; stroke-linejoin:round;">
<circle cx="61076.8" cy="9838.58" r="590.551" /> 
</g>
<g style="fill:#000000; fill-opacity:1.0; 
stroke:#000000; stroke-width:39.3701; stroke-opacity:1; 
stroke-linecap:round; stroke-linejoin:round;">
</g>
<g style="fill:#000000; fill-opacity:1.0; 
stroke:#000000; stroke-width:0; stroke-opacity:1; 
stroke-linecap:round; stroke-linejoin:round;">
<circle cx="62635.8" cy="9838.58" r="590.551" /> 
</g>
<g style="fill:#000000; fill-opacity:1.0; 
stroke:#000000; stroke-width:39.3701; stroke-opacity:1; 
stroke-linecap:round; stroke-linejoin:round;">
</g>
<g style="fill:#000000; fill-opacity:1.0; 
stroke:#000000; stroke-width:0; stroke-opacity:1; 
stroke-linecap:round; stroke-linejoin:round;">
<circle cx="63669.3" cy="17114.2" r="334.646" /> 
</g>
<g style="fill:#000000; fill-opacity:1.0; 
stroke:#000000; stroke-width:39.3701; stroke-opacity:1; 
stroke-linecap:round; stroke-linejoin:round;">
</g>
<g style="fill:#000000; fill-opacity:1.0; 
stroke:#000000; stroke-width:0; stroke-opacity:1; 
stroke-linecap:round; stroke-linejoin:round;">
<circle cx="63661.4" cy="11393.7" r="334.646" /> 
</g>
<g style="fill:#000000; fill-opacity:1.0; 
stroke:#000000; stroke-width:39.3701; stroke-opacity:1; 
stroke-linecap:round; stroke-linejoin:round;">
</g>
<g style="fill:#000000; fill-opacity:1.0; 
stroke:#000000; stroke-width:0; stroke-opacity:1; 
stroke-linecap:round; stroke-linejoin:round;">
<polyline style="fill-rule:evenodd;"
points="55149,14572
55149,14080
55543,14080
55543,14572
55149,14572
" /> 
<polyline style="fill-rule:evenodd;"
points="54362,14572
54362,14080
54755,14080
54755,14572
54362,14572
" /> 
<polyline style="fill-rule:evenodd;"
points="58185,18311
58185,17996
58539,17996
58539,18311
58185,18311
" /> 
<polyline style="fill-rule:evenodd;"
points="57397,18685
57397,18370
57751,18370
57751,18685
57397,18685
" /> 
<polyline style="fill-rule:evenodd;"
points="57397,17937
57397,17622
57751,17622
57751,17937
57397,17937
" /> 
<polyline style="fill-rule:evenodd;"
points="56177,12088
55744,12088
55744,11891
56177,11891
56177,12088
" /> 
<polyline style="fill-rule:evenodd;"
points="54129,12088
53696,12088
53696,11891
54129,11891
54129,12088
" /> 
<polyline style="fill-rule:evenodd;"
points="56177,12588
55744,12588
55744,12391
56177,12391
56177,12588
" /> 
<polyline style="fill-rule:evenodd;"
points="56177,13088
55744,13088
55744,12891
56177,12891
56177,13088
" /> 
<polyline style="fill-rule:evenodd;"
points="56177,13588
55744,13588
55744,13391
56177,13391
56177,13588
" /> 
<polyline style="fill-rule:evenodd;"
points="54129,12588
53696,12588
53696,12391
54129,12391
54129,12588
" /> 
<polyline style="fill-rule:evenodd;"
points="54129,13088
53696,13088
53696,12891
54129,12891
54129,13088
" /> 
<polyline style="fill-rule:evenodd;"
points="54129,13588
53696,13588
53696,13391
54129,13391
54129,13588
" /> 
<polyline style="fill-rule:evenodd;"
points="57397,14962
57397,14647
57751,14647
57751,14962
57397,14962
" /> 
<polyline style="fill-rule:evenodd;"
points="57397,15710
57397,15395
57751,15395
57751,15710
57397,15710
" /> 
<polyline style="fill-rule:evenodd;"
points="58185,15336
58185,15021
58539,15021
58539,15336
58185,15336
" /> 
<polyline style="fill-rule:evenodd;"
points="58185,12362
58185,12047
58539,12047
58539,12362
58185,12362
" /> 
<polyline style="fill-rule:evenodd;"
points="57397,12736
57397,12421
57751,12421
57751,12736
57397,12736
" /> 
<polyline style="fill-rule:evenodd;"
points="57397,11988
57397,11673
57751,11673
57751,11988
57397,11988
" /> 
<polyline style="fill-rule:evenodd;"
points="57070,18677
56559,18677
56559,18401
57070,18401
57070,18677
" /> 
<polyline style="fill-rule:evenodd;"
points="57070,17929
56559,17929
56559,17653
57070,17653
57070,17929
" /> 
<polyline style="fill-rule:evenodd;"
points="57094,14956
56582,14956
56582,14681
57094,14681
57094,14956
" /> 
<polyline style="fill-rule:evenodd;"
points="57094,15704
56582,15704
56582,15429
57094,15429
57094,15704
" /> 
<polyline style="fill-rule:evenodd;"
points="57086,12748
56574,12748
56574,12472
57086,12472
57086,12748
" /> 
<polyline style="fill-rule:evenodd;"
points="57086,12000
56574,12000
56574,11724
57086,11724
57086,12000
" /> 
<polyline style="fill-rule:evenodd;"
points="58480,16791
58480,17303
58204,17303
58204,16791
58480,16791
" /> 
<polyline style="fill-rule:evenodd;"
points="57732,16791
57732,17303
57456,17303
57456,16791
57732,16791
" /> 
<polyline style="fill-rule:evenodd;"
points="58480,13811
58480,14322
58204,14322
58204,13811
58480,13811
" /> 
<polyline style="fill-rule:evenodd;"
points="57732,13811
57732,14322
57456,14322
57456,13811
57732,13811
" /> 
<polyline style="fill-rule:evenodd;"
points="57748,10838
57748,11350
57472,11350
57472,10838
57748,10838
" /> 
<polyline style="fill-rule:evenodd;"
points="58496,10838
58496,11350
58220,11350
58220,10838
58496,10838
" /> 
<circle cx="65940.9" cy="9688.98" r="590.551" /> 
</g>
<g style="fill:#000000; fill-opacity:1.0; 
stroke:#000000; stroke-width:39.3701; stroke-opacity:1; 
stroke-linecap:round; stroke-linejoin:round;">
</g>
<g style="fill:#000000; fill-opacity:1.0; 
stroke:#000000; stroke-width:0; stroke-opacity:1; 
stroke-linecap:round; stroke-linejoin:round;">
<circle cx="53944.9" cy="19066.9" r="590.551" /> 
</g>
<g style="fill:#000000; fill-opacity:1.0; 
stroke:#000000; stroke-width:39.3701; stroke-opacity:1; 
stroke-linecap:round; stroke-linejoin:round;">
</g>
<g style="fill:#000000; fill-opacity:1.0; 
stroke:#000000; stroke-width:0; stroke-opacity:1; 
stroke-linecap:round; stroke-linejoin:round;">
<circle cx="56078.7" cy="11531.5" r="157.48" /> 
</g>
<g style="fill:#000000; fill-opacity:1.0; 
stroke:#000000; stroke-width:39.3701; stroke-opacity:1; 
stroke-linecap:round; stroke-linejoin:round;">
</g>
<g style="fill:#000000; fill-opacity:1.0; 
stroke:#000000; stroke-width:0; stroke-opacity:1; 
stroke-linecap:round; stroke-linejoin:round;">
<circle cx="58023.6" cy="18590.6" r="157.48" /> 
</g>
<g style="fill:#000000; fill-opacity:1.0; 
stroke:#000000; stroke-width:39.3701; stroke-opacity:1; 
stroke-linecap:round; stroke-linejoin:round;">
</g>
<g style="fill:#000000; fill-opacity:1.0; 
stroke:#000000; stroke-width:0; stroke-opacity:1; 
stroke-linecap:round; stroke-linejoin:round;">
<circle cx="58007.9" cy="15626" r="157.48" /> 
</g>
<g style="fill:#000000; fill-opacity:1.0; 
stroke:#000000; stroke-width:39.3701; stroke-opacity:1; 
stroke-linecap:round; stroke-linejoin:round;">
</g>
<g style="fill:#000000; fill-opacity:1.0; 
stroke:#000000; stroke-width:0; stroke-opacity:1; 
stroke-linecap:round; stroke-linejoin:round;">
<circle cx="58007.9" cy="12629.9" r="157.48" /> 
</g>
<g style="fill:#000000; fill-opacity:1.0; 
stroke:#000000; stroke-width:39.3701; stroke-opacity:1; 
stroke-linecap:round; stroke-linejoin:round;">
</g>
<g style="fill:#000000; fill-opacity:1.0; 
stroke:#000000; stroke-width:0; stroke-opacity:1; 
stroke-linecap:round; stroke-linejoin:round;">
<circle cx="56815" cy="19248" r="157.48" /> 
</g>
<g style="fill:#000000; fill-opacity:1.0; 
stroke:#000000; stroke-width:39.3701; stroke-opacity:1; 
stroke-linecap:round; stroke-linejoin:round;">
</g>
<g style="fill:#000000; fill-opacity:1.0; 
stroke:#000000; stroke-width:0; stroke-opacity:1; 
stroke-linecap:round; stroke-linejoin:round;">
<circle cx="56826.8" cy="16279.5" r="157.48" /> 
</g>
<g style="fill:#000000; fill-opacity:1.0; 
stroke:#000000; stroke-width:39.3701; stroke-opacity:1; 
stroke-linecap:round; stroke-linejoin:round;">
</g>
<g style="fill:#000000; fill-opacity:1.0; 
stroke:#000000; stroke-width:0; stroke-opacity:1; 
stroke-linecap:round; stroke-linejoin:round;">
<circle cx="56834.6" cy="13263.8" r="157.48" /> 
</g>
<g style="fill:#000000; fill-opacity:1.0; 
stroke:#000000; stroke-width:39.3701; stroke-opacity:1; 
stroke-linecap:round; stroke-linejoin:round;">
</g>
<g style="fill:#000000; fill-opacity:1.0; 
stroke:#000000; stroke-width:0; stroke-opacity:1; 
stroke-linecap:round; stroke-linejoin:round;">
<circle cx="56846.5" cy="10968.5" r="157.48" /> 
</g>
<g style="fill:#000000; fill-opacity:1.0; 
stroke:#000000; stroke-width:39.3701; stroke-opacity:1; 
stroke-linecap:round; stroke-linejoin:round;">
</g>
<g style="fill:#000000; fill-opacity:1.0; 
stroke:#000000; stroke-width:787.402; stroke-opacity:1; 
stroke-linecap:round; stroke-linejoin:round;">
</g>
<g style="fill:#000000; fill-opacity:0.0; 
stroke:#000000; stroke-width:787.402; stroke-opacity:1; 
stroke-linecap:round; stroke-linejoin:round;">
<path d="M62700 17110
L63669 17114
" />
<path d="M62700 14259
L63661 14255
" />
<path d="M62700 11409
L63661 11393
" />
</g>
<g style="fill:#000000; fill-opacity:0.0; 
stroke:#000000; stroke-width:196.85; stroke-opacity:1; 
stroke-linecap:round; stroke-linejoin:round;">
<path d="M55960 11990
L56078 11531
" />
</g>
<g style="fill:#000000; fill-opacity:0.0; 
stroke:#000000; stroke-width:98.4252; stroke-opacity:1; 
stroke-linecap:round; stroke-linejoin:round;">
<path d="M58023 18590
L57574 18527
" />
<path d="M58007 15625
L57574 15553
" />
<path d="M58007 12629
L57574 12578
" />
</g>
<g style="fill:#000000; fill-opacity:0.0; 
stroke:#000000; stroke-width:196.85; stroke-opacity:1; 
stroke-linecap:round; stroke-linejoin:round;">
<path d="M55346 14326
L55346 12263
" />
<path d="M55346 12263
L55960 11990
" />
<path d="M53913 13490
L54559 14326
" />
<path d="M54559 14326
L54519 15200
" />
<path d="M54519 15188
L55129 15188
" />
</g>
<g style="fill:#000000; fill-opacity:0.0; 
stroke:#000000; stroke-width:787.402; stroke-opacity:1; 
stroke-linecap:round; stroke-linejoin:round;">
<path d="M63590 18098
L62700 18007
" />
<path d="M64826 18937
L63590 18098
" />
<path d="M62700 18007
L60220 18421
" />
</g>
<g style="fill:#000000; fill-opacity:0.0; 
stroke:#000000; stroke-width:98.4252; stroke-opacity:1; 
stroke-linecap:round; stroke-linejoin:round;">
<path d="M61917 19448
L62700 18905
" />
<path d="M58866 19452
L61917 19448
" />
<path d="M58362 18153
L58342 19244
" />
<path d="M58342 19244
L58866 19452
" />
<path d="M58118 17625
L57574 17779
" />
<path d="M58118 17625
L58342 17047
" />
</g>
<g style="fill:#000000; fill-opacity:0.0; 
stroke:#000000; stroke-width:196.85; stroke-opacity:1; 
stroke-linecap:round; stroke-linejoin:round;">
<path d="M53771 15188
L53751 16295
" />
<path d="M53751 16295
L54118 16791
" />
<path d="M55877 15188
L55874 16358
" />
<path d="M55874 16358
L55606 16791
" />
</g>
<g style="fill:#000000; fill-opacity:0.0; 
stroke:#000000; stroke-width:98.4252; stroke-opacity:1; 
stroke-linecap:round; stroke-linejoin:round;">
<path d="M58098 14633
L57574 14805
" />
<path d="M58342 14066
L58098 14633
" />
<path d="M62015 16582
L58881 16582
" />
<path d="M62700 16055
L62015 16582
" />
<path d="M58362 15179
L58342 16283
" />
<path d="M58342 16283
L58881 16582
" />
<path d="M61814 13728
L58877 13728
" />
<path d="M62700 13204
L61814 13728
" />
<path d="M58362 12204
L58342 13303
" />
<path d="M58342 13303
L58877 13728
" />
<path d="M57574 11830
L58062 11622
" />
<path d="M58358 11094
L58062 11622
" />
</g>
<g style="fill:#000000; fill-opacity:0.0; 
stroke:#000000; stroke-width:787.402; stroke-opacity:1; 
stroke-linecap:round; stroke-linejoin:round;">
<path d="M63704 15299
L62700 15157
" />
<path d="M64826 15818
L63704 15299
" />
<path d="M62700 15157
L60220 15157
" />
<path d="M63661 12346
L62700 12307
" />
<path d="M64826 12700
L63661 12346
" />
<path d="M62700 12307
L60220 12307
" />
<path d="M66003 16704
L66023 15019
" />
<path d="M66003 13492
L66031 12125
" />
<path d="M64826 11141
L66031 12125
" />
<path d="M66003 13492
L64826 14259
" />
<path d="M64826 14259
L66023 15019
" />
<path d="M66003 16704
L64826 17377
" />
<path d="M62635 9838
L64070 9850
" />
<path d="M64070 9850
L64826 11141
" />
</g>
<g style="fill:#000000; fill-opacity:0.0; 
stroke:#000000; stroke-width:196.85; stroke-opacity:1; 
stroke-linecap:round; stroke-linejoin:round;">
<path d="M55381 9265
L57842 9265
" />
<path d="M55381 9265
L55078 9822
" />
<path d="M57842 9265
L58078 9822
" />
<path d="M58078 9822
L58094 10533
" />
</g>
<g style="fill:#000000; fill-opacity:0.0; 
stroke:#000000; stroke-width:98.4252; stroke-opacity:1; 
stroke-linecap:round; stroke-linejoin:round;">
<path d="M56814 19248
L57594 19244
" />
<path d="M56826 16279
L57594 16283
" />
<path d="M56814 19248
L56814 18539
" />
<path d="M56834 13263
L57594 13303
" />
</g>
<g style="fill:#000000; fill-opacity:0.0; 
stroke:#000000; stroke-width:196.85; stroke-opacity:1; 
stroke-linecap:round; stroke-linejoin:round;">
<path d="M57362 10523
L58094 10533
" />
<path d="M57062 10531
L57362 10523
" />
<path d="M56846 10968
L57062 10531
" />
</g>
<g style="fill:#000000; fill-opacity:0.0; 
stroke:#000000; stroke-width:98.4252; stroke-opacity:1; 
stroke-linecap:round; stroke-linejoin:round;">
<path d="M56838 15566
L56826 16279
" />
<path d="M56830 12610
L56834 13263
" />
</g>
<g style="fill:#000000; fill-opacity:0.0; 
stroke:#000000; stroke-width:787.402; stroke-opacity:1; 
stroke-linecap:round; stroke-linejoin:round;">
<path d="M64070 9850
L65124 10446
" />
<path d="M65124 10446
L66031 12125
" />
</g>
<g style="fill:#000000; fill-opacity:0.0; 
stroke:#000000; stroke-width:196.85; stroke-opacity:1; 
stroke-linecap:round; stroke-linejoin:round;">
<path d="M64826 14259
L66014 14279
" />
</g>
<g style="fill:#000000; fill-opacity:0.0; 
stroke:#000000; stroke-width:787.402; stroke-opacity:1; 
stroke-linecap:round; stroke-linejoin:round;">
<path d="M66003 13492
L66014 14279
" />
<path d="M66014 14279
L66023 15019
" />
</g>
<g style="fill:#000000; fill-opacity:0.0; 
stroke:#000000; stroke-width:196.85; stroke-opacity:1; 
stroke-linecap:round; stroke-linejoin:round;">
<path d="M62011 10688
L62635 9838
" />
<path d="M59251 10712
L62011 10688
" />
<path d="M58094 10533
L59066 10547
" />
<path d="M59066 10547
L59251 10712
" />
</g>
<g style="fill:#000000; fill-opacity:0.0; 
stroke:#000000; stroke-width:98.4252; stroke-opacity:1; 
stroke-linecap:round; stroke-linejoin:round;">
<path d="M55448 11212
L57078 9822
" />
<path d="M54078 9822
L53913 11990
" />
<path d="M54700 11212
L54704 12110
" />
<path d="M54704 12110
L54413 12456
" />
<path d="M54413 12456
L53913 12490
" />
<path d="M56303 14614
L56318 17188
" />
<path d="M56303 14614
L55988 14295
" />
<path d="M55988 14295
L55960 13490
" />
<path d="M56318 17188
L56814 17791
" />
<path d="M56814 17791
L57173 17240
" />
<path d="M57173 17240
L57594 17047
" />
<path d="M56838 14818
L57224 14181
" />
<path d="M55960 12990
L56440 13208
" />
<path d="M56440 13208
L56468 14271
" />
<path d="M56468 14271
L56838 14818
" />
<path d="M57224 14181
L57594 14066
" />
<path d="M56830 11862
L57094 11200
" />
<path d="M56830 11862
L55960 12490
" />
<path d="M57094 11200
L57610 11094
" />
</g> 
</svg>
