<?xml version="1.0" encoding="UTF-8" standalone="no"?>
<svg
   xmlns:dc="http://purl.org/dc/elements/1.1/"
   xmlns:cc="http://creativecommons.org/ns#"
   xmlns:rdf="http://www.w3.org/1999/02/22-rdf-syntax-ns#"
   xmlns:svg="http://www.w3.org/2000/svg"
   xmlns="http://www.w3.org/2000/svg"
   xmlns:sodipodi="http://sodipodi.sourceforge.net/DTD/sodipodi-0.dtd"
   xmlns:inkscape="http://www.inkscape.org/namespaces/inkscape"
   version="1.1"
   width="29.7002cm"
   height="21.0007cm"
   viewBox="0 0 116930 82680 "
   id="svg1883"
   sodipodi:docname="WS2811 Expander Second.svg"
   inkscape:version="0.92.2 (5c3e80d, 2017-08-06)">
  <metadata
     id="metadata1889">
    <rdf:RDF>
      <cc:Work
         rdf:about="">
        <dc:format>image/svg+xml</dc:format>
        <dc:type
           rdf:resource="http://purl.org/dc/dcmitype/StillImage" />
        <dc:title>SVG Picture created as WS2811 Expander-F.Cu.svg date 2019/06/14 16:15:48 </dc:title>
      </cc:Work>
    </rdf:RDF>
  </metadata>
  <defs
     id="defs1887" />
  <sodipodi:namedview
     pagecolor="#ffffff"
     bordercolor="#666666"
     borderopacity="1"
     objecttolerance="10"
     gridtolerance="10"
     guidetolerance="10"
     inkscape:pageopacity="0"
     inkscape:pageshadow="2"
     inkscape:window-width="2560"
     inkscape:window-height="1361"
     id="namedview1885"
     showgrid="false"
     inkscape:zoom="6.7276765"
     inkscape:cx="602.61265"
     inkscape:cy="649.52773"
     inkscape:window-x="1591"
     inkscape:window-y="-9"
     inkscape:window-maximized="1"
     inkscape:current-layer="svg1883" />
  <title
     id="title1353">SVG Picture created as WS2811 Expander-F.Cu.svg date 2019/06/14 16:15:48 </title>
  <desc
     id="desc1355">Picture generated by PCBNEW </desc>
  <g
     style="fill:#000000; fill-opacity:1;stroke:#000000; stroke-opacity:1; stroke-linecap:round; stroke-linejoin:round; "
     transform="translate(0 0) scale(1 1)"
     id="g1357" />
  <g
     style="fill:#000000; fill-opacity:0.0;  stroke:#000000; stroke-width:-0.000393701; stroke-opacity:1;  stroke-linecap:round; stroke-linejoin:round;"
     id="g1359" />
  <g
     style="fill:#000000; fill-opacity:0.0;  stroke:#000000; stroke-width:0; stroke-opacity:1;  stroke-linecap:round; stroke-linejoin:round;"
     id="g1361" />
  <g
     style="fill:#000000; fill-opacity:1.0;  stroke:#000000; stroke-width:0; stroke-opacity:1;  stroke-linecap:round; stroke-linejoin:round;"
     id="g1365">
    <polyline
       style="fill-rule:evenodd;"
       points="54413,10157 53744,10157 53744,9488 54413,9488 54413,10157 "
       id="polyline1363" />
  </g>
  <g
     style="fill:#000000; fill-opacity:1.0;  stroke:#000000; stroke-width:669.291; stroke-opacity:1;  stroke-linecap:round; stroke-linejoin:round;"
     id="g1367" />
  <g
     style="fill:#000000; fill-opacity:0.0;  stroke:#000000; stroke-width:669.291; stroke-opacity:1;  stroke-linecap:round; stroke-linejoin:round;"
     id="g1379">
    <path
       d="M55078 9822 L55078 9822 "
       id="path1369" />
    <path
       d="M56078 9822 L56078 9822 "
       id="path1371" />
    <path
       d="M57078 9822 L57078 9822 "
       id="path1373" />
    <path
       d="M58078 9822 L58078 9822 "
       id="path1375" />
    <path
       d="M59078 9822 L59078 9822 "
       id="path1377" />
  </g>
  <g
     style="fill:#000000; fill-opacity:0.0;  stroke:#000000; stroke-width:0; stroke-opacity:1;  stroke-linecap:round; stroke-linejoin:round;"
     id="g1381" />
  <g
     style="fill:#000000; fill-opacity:1.0;  stroke:#000000; stroke-width:0; stroke-opacity:1;  stroke-linecap:round; stroke-linejoin:round;"
     id="g1385">
    <polyline
       style="fill-rule:evenodd;"
       points="55940,17456 55940,18125 55271,18125 55271,17456 55940,17456 "
       id="polyline1383" />
  </g>
  <g
     style="fill:#000000; fill-opacity:1.0;  stroke:#000000; stroke-width:669.291; stroke-opacity:1;  stroke-linecap:round; stroke-linejoin:round;"
     id="g1387" />
  <g
     style="fill:#000000; fill-opacity:0.0;  stroke:#000000; stroke-width:669.291; stroke-opacity:1;  stroke-linecap:round; stroke-linejoin:round;"
     id="g1391">
    <path
       d="M55606 16791 L55606 16791 "
       id="path1389" />
  </g>
  <g
     style="fill:#000000; fill-opacity:0.0;  stroke:#000000; stroke-width:0; stroke-opacity:1;  stroke-linecap:round; stroke-linejoin:round;"
     id="g1393" />
  <g
     style="fill:#000000; fill-opacity:1.0;  stroke:#000000; stroke-width:0; stroke-opacity:1;  stroke-linecap:round; stroke-linejoin:round;"
     id="g1397">
    <polyline
       style="fill-rule:evenodd;"
       points="54452,17456 54452,18125 53783,18125 53783,17456 54452,17456 "
       id="polyline1395" />
  </g>
  <g
     style="fill:#000000; fill-opacity:1.0;  stroke:#000000; stroke-width:669.291; stroke-opacity:1;  stroke-linecap:round; stroke-linejoin:round;"
     id="g1399" />
  <g
     style="fill:#000000; fill-opacity:0.0;  stroke:#000000; stroke-width:669.291; stroke-opacity:1;  stroke-linecap:round; stroke-linejoin:round;"
     id="g1403">
    <path
       d="M54118 16791 L54118 16791 "
       id="path1401" />
  </g>
  <g
     style="fill:#000000; fill-opacity:0.0;  stroke:#000000; stroke-width:0; stroke-opacity:1;  stroke-linecap:round; stroke-linejoin:round;"
     id="g1405" />
  <g
     style="fill:#000000; fill-opacity:1.0;  stroke:#000000; stroke-width:0; stroke-opacity:1;  stroke-linecap:round; stroke-linejoin:round;"
     id="g1451">
    <polyline
       style="fill-rule:evenodd;"
       points="61480,16866 61480,17948 60279,17948 60279,16866 61480,16866 "
       id="polyline1407" />
    <polyline
       style="fill-rule:evenodd;"
       points="60161,18066 60161,19149 58960,19149 58960,18066 60161,18066 "
       id="polyline1409" />
    <polyline
       style="fill-rule:evenodd;"
       points="61480,18066 61480,19149 60279,19149 60279,18066 61480,18066 "
       id="polyline1411" />
    <polyline
       style="fill-rule:evenodd;"
       points="60161,16866 60161,17948 58960,17948 58960,16866 60161,16866 "
       id="polyline1413" />
    <polyline
       style="fill-rule:evenodd;"
       points="61480,16866 61480,19149 58960,19149 58960,16866 61480,16866 "
       id="polyline1415" />
    <polyline
       style="fill-rule:evenodd;"
       points="63133,16874 63133,17346 62267,17346 62267,16874 63133,16874 "
       id="polyline1417" />
    <polyline
       style="fill-rule:evenodd;"
       points="63133,18669 63133,19141 62267,19141 62267,18669 63133,18669 "
       id="polyline1419" />
    <polyline
       style="fill-rule:evenodd;"
       points="63133,15818 63133,16291 62267,16291 62267,15818 63133,15818 "
       id="polyline1421" />
    <polyline
       style="fill-rule:evenodd;"
       points="63133,14023 63133,14496 62267,14496 62267,14023 63133,14023 "
       id="polyline1423" />
    <polyline
       style="fill-rule:evenodd;"
       points="61480,14015 61480,16299 58960,16299 58960,14015 61480,14015 "
       id="polyline1425" />
    <polyline
       style="fill-rule:evenodd;"
       points="60161,14015 60161,15098 58960,15098 58960,14015 60161,14015 "
       id="polyline1427" />
    <polyline
       style="fill-rule:evenodd;"
       points="61480,15216 61480,16299 60279,16299 60279,15216 61480,15216 "
       id="polyline1429" />
    <polyline
       style="fill-rule:evenodd;"
       points="60161,15216 60161,16299 58960,16299 58960,15216 60161,15216 "
       id="polyline1431" />
    <polyline
       style="fill-rule:evenodd;"
       points="61480,14015 61480,15098 60279,15098 60279,14015 61480,14015 "
       id="polyline1433" />
    <polyline
       style="fill-rule:evenodd;"
       points="61480,11165 61480,12248 60279,12248 60279,11165 61480,11165 "
       id="polyline1435" />
    <polyline
       style="fill-rule:evenodd;"
       points="60161,12366 60161,13448 58960,13448 58960,12366 60161,12366 "
       id="polyline1437" />
    <polyline
       style="fill-rule:evenodd;"
       points="61480,12366 61480,13448 60279,13448 60279,12366 61480,12366 "
       id="polyline1439" />
    <polyline
       style="fill-rule:evenodd;"
       points="60161,11165 60161,12248 58960,12248 58960,11165 60161,11165 "
       id="polyline1441" />
    <polyline
       style="fill-rule:evenodd;"
       points="61480,11165 61480,13448 58960,13448 58960,11165 61480,11165 "
       id="polyline1443" />
    <polyline
       style="fill-rule:evenodd;"
       points="63133,11173 63133,11645 62267,11645 62267,11173 63133,11173 "
       id="polyline1445" />
    <polyline
       style="fill-rule:evenodd;"
       points="63133,12968 63133,13440 62267,13440 62267,12968 63133,12968 "
       id="polyline1447" />
    <circle
       cx="63661.4"
       cy="14255.9"
       r="334.646"
       id="circle1449" />
  </g>
  <g
     style="fill:#000000; fill-opacity:1.0;  stroke:#000000; stroke-width:39.3701; stroke-opacity:1;  stroke-linecap:round; stroke-linejoin:round;"
     id="g1453" />
  <g
     style="fill:#000000; fill-opacity:1.0;  stroke:#000000; stroke-width:0; stroke-opacity:1;  stroke-linecap:round; stroke-linejoin:round;"
     id="g1481">
    <polyline
       style="fill-rule:evenodd;"
       points="54562,11468 54562,10956 54838,10956 54838,11468 54562,11468 "
       id="polyline1455" />
    <polyline
       style="fill-rule:evenodd;"
       points="55311,11468 55311,10956 55586,10956 55586,11468 55311,11468 "
       id="polyline1457" />
    <polyline
       style="fill-rule:evenodd;"
       points="56015,14933 56015,15444 55740,15444 55740,14933 56015,14933 "
       id="polyline1459" />
    <polyline
       style="fill-rule:evenodd;"
       points="55267,14933 55267,15444 54992,15444 54992,14933 55267,14933 "
       id="polyline1461" />
    <polyline
       style="fill-rule:evenodd;"
       points="53633,15444 53633,14933 53909,14933 53909,15444 53633,15444 "
       id="polyline1463" />
    <polyline
       style="fill-rule:evenodd;"
       points="54381,15444 54381,14933 54657,14933 54657,15444 54381,15444 "
       id="polyline1465" />
    <polyline
       style="fill-rule:evenodd;"
       points="57456,19500 57456,18988 57732,18988 57732,19500 57456,19500 "
       id="polyline1467" />
    <polyline
       style="fill-rule:evenodd;"
       points="58204,19500 58204,18988 58480,18988 58480,19500 58204,19500 "
       id="polyline1469" />
    <polyline
       style="fill-rule:evenodd;"
       points="57456,16539 57456,16027 57732,16027 57732,16539 57456,16539 "
       id="polyline1471" />
    <polyline
       style="fill-rule:evenodd;"
       points="58204,16539 58204,16027 58480,16027 58480,16539 58204,16539 "
       id="polyline1473" />
    <polyline
       style="fill-rule:evenodd;"
       points="57456,13559 57456,13047 57732,13047 57732,13559 57456,13559 "
       id="polyline1475" />
    <polyline
       style="fill-rule:evenodd;"
       points="58204,13559 58204,13047 58480,13047 58480,13559 58204,13559 "
       id="polyline1477" />
    <circle
       cx="64826.8"
       cy="11141.7"
       r="590.551"
       id="circle1479" />
  </g>
  <g
     style="fill:#000000; fill-opacity:1.0;  stroke:#000000; stroke-width:39.3701; stroke-opacity:1;  stroke-linecap:round; stroke-linejoin:round;"
     id="g1483" />
  <g
     style="fill:#000000; fill-opacity:1.0;  stroke:#000000; stroke-width:0; stroke-opacity:1;  stroke-linecap:round; stroke-linejoin:round;"
     id="g1487">
    <circle
       cx="64826.8"
       cy="12700.8"
       r="590.551"
       id="circle1485" />
  </g>
  <g
     style="fill:#000000; fill-opacity:1.0;  stroke:#000000; stroke-width:39.3701; stroke-opacity:1;  stroke-linecap:round; stroke-linejoin:round;"
     id="g1489" />
  <g
     style="fill:#000000; fill-opacity:1.0;  stroke:#000000; stroke-width:0; stroke-opacity:1;  stroke-linecap:round; stroke-linejoin:round;"
     id="g1493">
    <circle
       cx="64826.8"
       cy="14259.8"
       r="590.551"
       id="circle1491" />
  </g>
  <g
     style="fill:#000000; fill-opacity:1.0;  stroke:#000000; stroke-width:39.3701; stroke-opacity:1;  stroke-linecap:round; stroke-linejoin:round;"
     id="g1495" />
  <g
     style="fill:#000000; fill-opacity:1.0;  stroke:#000000; stroke-width:0; stroke-opacity:1;  stroke-linecap:round; stroke-linejoin:round;"
     id="g1499">
    <circle
       cx="64826.8"
       cy="15818.9"
       r="590.551"
       id="circle1497" />
  </g>
  <g
     style="fill:#000000; fill-opacity:1.0;  stroke:#000000; stroke-width:39.3701; stroke-opacity:1;  stroke-linecap:round; stroke-linejoin:round;"
     id="g1501" />
  <g
     style="fill:#000000; fill-opacity:1.0;  stroke:#000000; stroke-width:0; stroke-opacity:1;  stroke-linecap:round; stroke-linejoin:round;"
     id="g1505">
    <circle
       cx="64826.8"
       cy="17378"
       r="590.551"
       id="circle1503" />
  </g>
  <g
     style="fill:#000000; fill-opacity:1.0;  stroke:#000000; stroke-width:39.3701; stroke-opacity:1;  stroke-linecap:round; stroke-linejoin:round;"
     id="g1507" />
  <g
     style="fill:#000000; fill-opacity:1.0;  stroke:#000000; stroke-width:0; stroke-opacity:1;  stroke-linecap:round; stroke-linejoin:round;"
     id="g1511">
    <circle
       cx="64826.8"
       cy="18937"
       r="590.551"
       id="circle1509" />
  </g>
  <g
     style="fill:#000000; fill-opacity:1.0;  stroke:#000000; stroke-width:39.3701; stroke-opacity:1;  stroke-linecap:round; stroke-linejoin:round;"
     id="g1513" />
  <g
     style="fill:#000000; fill-opacity:1.0;  stroke:#000000; stroke-width:0; stroke-opacity:1;  stroke-linecap:round; stroke-linejoin:round;"
     id="g1517">
    <circle
       cx="61076.8"
       cy="9838.58"
       r="590.551"
       id="circle1515" />
  </g>
  <g
     style="fill:#000000; fill-opacity:1.0;  stroke:#000000; stroke-width:39.3701; stroke-opacity:1;  stroke-linecap:round; stroke-linejoin:round;"
     id="g1519" />
  <g
     style="fill:#000000; fill-opacity:1.0;  stroke:#000000; stroke-width:0; stroke-opacity:1;  stroke-linecap:round; stroke-linejoin:round;"
     id="g1523">
    <circle
       cx="62635.8"
       cy="9838.58"
       r="590.551"
       id="circle1521" />
  </g>
  <g
     style="fill:#000000; fill-opacity:1.0;  stroke:#000000; stroke-width:39.3701; stroke-opacity:1;  stroke-linecap:round; stroke-linejoin:round;"
     id="g1525" />
  <g
     style="fill:#000000; fill-opacity:1.0;  stroke:#000000; stroke-width:0; stroke-opacity:1;  stroke-linecap:round; stroke-linejoin:round;"
     id="g1529">
    <circle
       cx="63669.3"
       cy="17114.2"
       r="334.646"
       id="circle1527" />
  </g>
  <g
     style="fill:#000000; fill-opacity:1.0;  stroke:#000000; stroke-width:39.3701; stroke-opacity:1;  stroke-linecap:round; stroke-linejoin:round;"
     id="g1531" />
  <g
     style="fill:#000000; fill-opacity:1.0;  stroke:#000000; stroke-width:0; stroke-opacity:1;  stroke-linecap:round; stroke-linejoin:round;"
     id="g1535">
    <circle
       cx="63661.4"
       cy="11393.7"
       r="334.646"
       id="circle1533" />
  </g>
  <g
     style="fill:#000000; fill-opacity:1.0;  stroke:#000000; stroke-width:39.3701; stroke-opacity:1;  stroke-linecap:round; stroke-linejoin:round;"
     id="g1537" />
  <g
     style="fill:#000000; fill-opacity:1.0;  stroke:#000000; stroke-width:0; stroke-opacity:1;  stroke-linecap:round; stroke-linejoin:round;"
     id="g1603">
    <polyline
       style="fill-rule:evenodd;"
       points="55149,14572 55149,14080 55543,14080 55543,14572 55149,14572 "
       id="polyline1539" />
    <polyline
       style="fill-rule:evenodd;"
       points="54362,14572 54362,14080 54755,14080 54755,14572 54362,14572 "
       id="polyline1541" />
    <polyline
       style="fill-rule:evenodd;"
       points="58185,18311 58185,17996 58539,17996 58539,18311 58185,18311 "
       id="polyline1543" />
    <polyline
       style="fill-rule:evenodd;"
       points="57397,18685 57397,18370 57751,18370 57751,18685 57397,18685 "
       id="polyline1545" />
    <polyline
       style="fill-rule:evenodd;"
       points="57397,17937 57397,17622 57751,17622 57751,17937 57397,17937 "
       id="polyline1547" />
    <polyline
       style="fill-rule:evenodd;"
       points="56177,12088 55744,12088 55744,11891 56177,11891 56177,12088 "
       id="polyline1549" />
    <polyline
       style="fill-rule:evenodd;"
       points="54129,12088 53696,12088 53696,11891 54129,11891 54129,12088 "
       id="polyline1551" />
    <polyline
       style="fill-rule:evenodd;"
       points="56177,12588 55744,12588 55744,12391 56177,12391 56177,12588 "
       id="polyline1553" />
    <polyline
       style="fill-rule:evenodd;"
       points="56177,13088 55744,13088 55744,12891 56177,12891 56177,13088 "
       id="polyline1555" />
    <polyline
       style="fill-rule:evenodd;"
       points="56177,13588 55744,13588 55744,13391 56177,13391 56177,13588 "
       id="polyline1557" />
    <polyline
       style="fill-rule:evenodd;"
       points="54129,12588 53696,12588 53696,12391 54129,12391 54129,12588 "
       id="polyline1559" />
    <polyline
       style="fill-rule:evenodd;"
       points="54129,13088 53696,13088 53696,12891 54129,12891 54129,13088 "
       id="polyline1561" />
    <polyline
       style="fill-rule:evenodd;"
       points="54129,13588 53696,13588 53696,13391 54129,13391 54129,13588 "
       id="polyline1563" />
    <polyline
       style="fill-rule:evenodd;"
       points="57397,14962 57397,14647 57751,14647 57751,14962 57397,14962 "
       id="polyline1565" />
    <polyline
       style="fill-rule:evenodd;"
       points="57397,15710 57397,15395 57751,15395 57751,15710 57397,15710 "
       id="polyline1567" />
    <polyline
       style="fill-rule:evenodd;"
       points="58185,15336 58185,15021 58539,15021 58539,15336 58185,15336 "
       id="polyline1569" />
    <polyline
       style="fill-rule:evenodd;"
       points="58185,12362 58185,12047 58539,12047 58539,12362 58185,12362 "
       id="polyline1571" />
    <polyline
       style="fill-rule:evenodd;"
       points="57397,12736 57397,12421 57751,12421 57751,12736 57397,12736 "
       id="polyline1573" />
    <polyline
       style="fill-rule:evenodd;"
       points="57397,11988 57397,11673 57751,11673 57751,11988 57397,11988 "
       id="polyline1575" />
    <polyline
       style="fill-rule:evenodd;"
       points="57070,18677 56559,18677 56559,18401 57070,18401 57070,18677 "
       id="polyline1577" />
    <polyline
       style="fill-rule:evenodd;"
       points="57070,17929 56559,17929 56559,17653 57070,17653 57070,17929 "
       id="polyline1579" />
    <polyline
       style="fill-rule:evenodd;"
       points="57094,14956 56582,14956 56582,14681 57094,14681 57094,14956 "
       id="polyline1581" />
    <polyline
       style="fill-rule:evenodd;"
       points="57094,15704 56582,15704 56582,15429 57094,15429 57094,15704 "
       id="polyline1583" />
    <polyline
       style="fill-rule:evenodd;"
       points="57086,12748 56574,12748 56574,12472 57086,12472 57086,12748 "
       id="polyline1585" />
    <polyline
       style="fill-rule:evenodd;"
       points="57086,12000 56574,12000 56574,11724 57086,11724 57086,12000 "
       id="polyline1587" />
    <polyline
       style="fill-rule:evenodd;"
       points="58480,16791 58480,17303 58204,17303 58204,16791 58480,16791 "
       id="polyline1589" />
    <polyline
       style="fill-rule:evenodd;"
       points="57732,16791 57732,17303 57456,17303 57456,16791 57732,16791 "
       id="polyline1591" />
    <polyline
       style="fill-rule:evenodd;"
       points="58480,13811 58480,14322 58204,14322 58204,13811 58480,13811 "
       id="polyline1593" />
    <polyline
       style="fill-rule:evenodd;"
       points="57732,13811 57732,14322 57456,14322 57456,13811 57732,13811 "
       id="polyline1595" />
    <polyline
       style="fill-rule:evenodd;"
       points="57748,10838 57748,11350 57472,11350 57472,10838 57748,10838 "
       id="polyline1597" />
    <polyline
       style="fill-rule:evenodd;"
       points="58496,10838 58496,11350 58220,11350 58220,10838 58496,10838 "
       id="polyline1599" />
    <circle
       cx="65940.9"
       cy="9688.98"
       r="590.551"
       id="circle1601" />
  </g>
  <g
     style="fill:#000000; fill-opacity:1.0;  stroke:#000000; stroke-width:39.3701; stroke-opacity:1;  stroke-linecap:round; stroke-linejoin:round;"
     id="g1605" />
  <g
     style="fill:#000000; fill-opacity:1.0;  stroke:#000000; stroke-width:0; stroke-opacity:1;  stroke-linecap:round; stroke-linejoin:round;"
     id="g1609">
    <circle
       cx="53944.9"
       cy="19066.9"
       r="590.551"
       id="circle1607" />
  </g>
  <g
     style="fill:#000000; fill-opacity:1.0;  stroke:#000000; stroke-width:39.3701; stroke-opacity:1;  stroke-linecap:round; stroke-linejoin:round;"
     id="g1611" />
  <g
     style="fill:#000000; fill-opacity:1.0;  stroke:#000000; stroke-width:0; stroke-opacity:1;  stroke-linecap:round; stroke-linejoin:round;"
     id="g1615">
    <circle
       cx="56078.7"
       cy="11531.5"
       r="157.48"
       id="circle1613" />
  </g>
  <g
     style="fill:#000000; fill-opacity:1.0;  stroke:#000000; stroke-width:39.3701; stroke-opacity:1;  stroke-linecap:round; stroke-linejoin:round;"
     id="g1617" />
  <g
     style="fill:#000000; fill-opacity:1.0;  stroke:#000000; stroke-width:0; stroke-opacity:1;  stroke-linecap:round; stroke-linejoin:round;"
     id="g1621">
    <circle
       cx="58023.6"
       cy="18590.6"
       r="157.48"
       id="circle1619" />
  </g>
  <g
     style="fill:#000000; fill-opacity:1.0;  stroke:#000000; stroke-width:39.3701; stroke-opacity:1;  stroke-linecap:round; stroke-linejoin:round;"
     id="g1623" />
  <g
     style="fill:#000000; fill-opacity:1.0;  stroke:#000000; stroke-width:0; stroke-opacity:1;  stroke-linecap:round; stroke-linejoin:round;"
     id="g1627">
    <circle
       cx="58007.9"
       cy="15626"
       r="157.48"
       id="circle1625" />
  </g>
  <g
     style="fill:#000000; fill-opacity:1.0;  stroke:#000000; stroke-width:39.3701; stroke-opacity:1;  stroke-linecap:round; stroke-linejoin:round;"
     id="g1629" />
  <g
     style="fill:#000000; fill-opacity:1.0;  stroke:#000000; stroke-width:0; stroke-opacity:1;  stroke-linecap:round; stroke-linejoin:round;"
     id="g1633">
    <circle
       cx="58007.9"
       cy="12629.9"
       r="157.48"
       id="circle1631" />
  </g>
  <g
     style="fill:#000000; fill-opacity:1.0;  stroke:#000000; stroke-width:39.3701; stroke-opacity:1;  stroke-linecap:round; stroke-linejoin:round;"
     id="g1635" />
  <g
     style="fill:#000000; fill-opacity:1.0;  stroke:#000000; stroke-width:0; stroke-opacity:1;  stroke-linecap:round; stroke-linejoin:round;"
     id="g1639">
    <circle
       cx="56815"
       cy="19248"
       r="157.48"
       id="circle1637" />
  </g>
  <g
     style="fill:#000000; fill-opacity:1.0;  stroke:#000000; stroke-width:39.3701; stroke-opacity:1;  stroke-linecap:round; stroke-linejoin:round;"
     id="g1641" />
  <g
     style="fill:#000000; fill-opacity:1.0;  stroke:#000000; stroke-width:0; stroke-opacity:1;  stroke-linecap:round; stroke-linejoin:round;"
     id="g1645">
    <circle
       cx="56826.8"
       cy="16279.5"
       r="157.48"
       id="circle1643" />
  </g>
  <g
     style="fill:#000000; fill-opacity:1.0;  stroke:#000000; stroke-width:39.3701; stroke-opacity:1;  stroke-linecap:round; stroke-linejoin:round;"
     id="g1647" />
  <g
     style="fill:#000000; fill-opacity:1.0;  stroke:#000000; stroke-width:0; stroke-opacity:1;  stroke-linecap:round; stroke-linejoin:round;"
     id="g1651">
    <circle
       cx="56834.6"
       cy="13263.8"
       r="157.48"
       id="circle1649" />
  </g>
  <g
     style="fill:#000000; fill-opacity:1.0;  stroke:#000000; stroke-width:39.3701; stroke-opacity:1;  stroke-linecap:round; stroke-linejoin:round;"
     id="g1653" />
  <g
     style="fill:#000000; fill-opacity:1.0;  stroke:#000000; stroke-width:0; stroke-opacity:1;  stroke-linecap:round; stroke-linejoin:round;"
     id="g1657">
    <circle
       cx="56846.5"
       cy="10968.5"
       r="157.48"
       id="circle1655" />
  </g>
  <g
     style="fill:#000000; fill-opacity:1.0;  stroke:#000000; stroke-width:39.3701; stroke-opacity:1;  stroke-linecap:round; stroke-linejoin:round;"
     id="g1659" />
  <g
     style="fill:#000000; fill-opacity:1.0;  stroke:#000000; stroke-width:787.402; stroke-opacity:1;  stroke-linecap:round; stroke-linejoin:round;"
     id="g1661" />
  <g
     style="fill:#000000; fill-opacity:0.0;  stroke:#000000; stroke-width:787.402; stroke-opacity:1;  stroke-linecap:round; stroke-linejoin:round;"
     id="g1669">
    <path
       d="M62700 17110 L63669 17114 "
       id="path1663" />
    <path
       d="M62700 14259 L63661 14255 "
       id="path1665" />
    <path
       d="M62700 11409 L63661 11393 "
       id="path1667" />
  </g>
  <g
     style="fill:#000000; fill-opacity:0.0;  stroke:#000000; stroke-width:196.85; stroke-opacity:1;  stroke-linecap:round; stroke-linejoin:round;"
     id="g1673">
    <path
       d="M55960 11990 L56078 11531 "
       id="path1671" />
  </g>
  <g
     style="fill:#000000; fill-opacity:0.0;  stroke:#000000; stroke-width:98.4252; stroke-opacity:1;  stroke-linecap:round; stroke-linejoin:round;"
     id="g1681">
    <path
       d="M58023 18590 L57574 18527 "
       id="path1675" />
    <path
       d="M58007 15625 L57574 15553 "
       id="path1677" />
    <path
       d="M58007 12629 L57574 12578 "
       id="path1679" />
  </g>
  <g
     style="fill:#000000; fill-opacity:0.0;  stroke:#000000; stroke-width:196.85; stroke-opacity:1;  stroke-linecap:round; stroke-linejoin:round;"
     id="g1693">
    <path
       d="M55346 14326 L55346 12263 "
       id="path1683" />
    <path
       d="M55346 12263 L55960 11990 "
       id="path1685" />
    <path
       d="M53913 13490 L54559 14326 "
       id="path1687" />
    <path
       d="M54559 14326 L54519 15200 "
       id="path1689" />
    <path
       d="M54519 15188 L55129 15188 "
       id="path1691" />
  </g>
  <g
     style="fill:#000000; fill-opacity:0.0;  stroke:#000000; stroke-width:787.402; stroke-opacity:1;  stroke-linecap:round; stroke-linejoin:round;"
     id="g1701">
    <path
       d="M63590 18098 L62700 18007 "
       id="path1695" />
    <path
       d="M64826 18937 L63590 18098 "
       id="path1697" />
    <path
       d="M62700 18007 L60220 18421 "
       id="path1699" />
  </g>
  <g
     style="fill:#000000; fill-opacity:0.0;  stroke:#000000; stroke-width:98.4252; stroke-opacity:1;  stroke-linecap:round; stroke-linejoin:round;"
     id="g1715">
    <path
       d="M61917 19448 L62700 18905 "
       id="path1703" />
    <path
       d="M58866 19452 L61917 19448 "
       id="path1705" />
    <path
       d="M58362 18153 L58342 19244 "
       id="path1707" />
    <path
       d="M58342 19244 L58866 19452 "
       id="path1709" />
    <path
       d="M58118 17625 L57574 17779 "
       id="path1711" />
    <path
       d="M58118 17625 L58342 17047 "
       id="path1713" />
  </g>
  <g
     style="fill:#000000; fill-opacity:0.0;  stroke:#000000; stroke-width:196.85; stroke-opacity:1;  stroke-linecap:round; stroke-linejoin:round;"
     id="g1725">
    <path
       d="M53771 15188 L53751 16295 "
       id="path1717" />
    <path
       d="M53751 16295 L54118 16791 "
       id="path1719" />
    <path
       d="M55877 15188 L55874 16358 "
       id="path1721" />
    <path
       d="M55874 16358 L55606 16791 "
       id="path1723" />
  </g>
  <g
     style="fill:#000000; fill-opacity:0.0;  stroke:#000000; stroke-width:98.4252; stroke-opacity:1;  stroke-linecap:round; stroke-linejoin:round;"
     id="g1751">
    <path
       d="M58098 14633 L57574 14805 "
       id="path1727" />
    <path
       d="M58342 14066 L58098 14633 "
       id="path1729" />
    <path
       d="M62015 16582 L58881 16582 "
       id="path1731" />
    <path
       d="M62700 16055 L62015 16582 "
       id="path1733" />
    <path
       d="M58362 15179 L58342 16283 "
       id="path1735" />
    <path
       d="M58342 16283 L58881 16582 "
       id="path1737" />
    <path
       d="M61814 13728 L58877 13728 "
       id="path1739" />
    <path
       d="M62700 13204 L61814 13728 "
       id="path1741" />
    <path
       d="M58362 12204 L58342 13303 "
       id="path1743" />
    <path
       d="M58342 13303 L58877 13728 "
       id="path1745" />
    <path
       d="M57574 11830 L58062 11622 "
       id="path1747" />
    <path
       d="M58358 11094 L58062 11622 "
       id="path1749" />
  </g>
  <g
     style="fill:#000000; fill-opacity:0.0;  stroke:#000000; stroke-width:787.402; stroke-opacity:1;  stroke-linecap:round; stroke-linejoin:round;"
     id="g1781">
    <path
       d="M63704 15299 L62700 15157 "
       id="path1753" />
    <path
       d="M64826 15818 L63704 15299 "
       id="path1755" />
    <path
       d="M62700 15157 L60220 15157 "
       id="path1757" />
    <path
       d="M63661 12346 L62700 12307 "
       id="path1759" />
    <path
       d="M64826 12700 L63661 12346 "
       id="path1761" />
    <path
       d="M62700 12307 L60220 12307 "
       id="path1763" />
    <path
       d="M66003 16704 L66023 15019 "
       id="path1765" />
    <path
       d="M66003 13492 L66031 12125 "
       id="path1767" />
    <path
       d="M64826 11141 L66031 12125 "
       id="path1769" />
    <path
       d="M66003 13492 L64826 14259 "
       id="path1771" />
    <path
       d="M64826 14259 L66023 15019 "
       id="path1773" />
    <path
       d="M66003 16704 L64826 17377 "
       id="path1775" />
    <path
       d="M62635 9838 L64070 9850 "
       id="path1777" />
    <path
       d="M64070 9850 L64826 11141 "
       id="path1779" />
  </g>
  <g
     style="fill:#000000; fill-opacity:0.0;  stroke:#000000; stroke-width:196.85; stroke-opacity:1;  stroke-linecap:round; stroke-linejoin:round;"
     id="g1791">
    <path
       d="M55381 9265 L57842 9265 "
       id="path1783" />
    <path
       d="M55381 9265 L55078 9822 "
       id="path1785" />
    <path
       d="M57842 9265 L58078 9822 "
       id="path1787" />
    <path
       d="M58078 9822 L58094 10533 "
       id="path1789" />
  </g>
  <g
     style="fill:#000000; fill-opacity:0.0;  stroke:#000000; stroke-width:98.4252; stroke-opacity:1;  stroke-linecap:round; stroke-linejoin:round;"
     id="g1801">
    <path
       d="M56814 19248 L57594 19244 "
       id="path1793" />
    <path
       d="M56826 16279 L57594 16283 "
       id="path1795" />
    <path
       d="M56814 19248 L56814 18539 "
       id="path1797" />
    <path
       d="M56834 13263 L57594 13303 "
       id="path1799" />
  </g>
  <g
     style="fill:#000000; fill-opacity:0.0;  stroke:#000000; stroke-width:196.85; stroke-opacity:1;  stroke-linecap:round; stroke-linejoin:round;"
     id="g1809">
    <path
       d="M57362 10523 L58094 10533 "
       id="path1803" />
    <path
       d="M57062 10531 L57362 10523 "
       id="path1805" />
    <path
       d="M56846 10968 L57062 10531 "
       id="path1807" />
  </g>
  <g
     style="fill:#000000; fill-opacity:0.0;  stroke:#000000; stroke-width:98.4252; stroke-opacity:1;  stroke-linecap:round; stroke-linejoin:round;"
     id="g1815">
    <path
       d="M56838 15566 L56826 16279 "
       id="path1811" />
    <path
       d="M56830 12610 L56834 13263 "
       id="path1813" />
  </g>
  <g
     style="fill:#000000; fill-opacity:0.0;  stroke:#000000; stroke-width:787.402; stroke-opacity:1;  stroke-linecap:round; stroke-linejoin:round;"
     id="g1821">
    <path
       d="M64070 9850 L65124 10446 "
       id="path1817" />
    <path
       d="M65124 10446 L66031 12125 "
       id="path1819" />
  </g>
  <g
     style="fill:#000000; fill-opacity:0.0;  stroke:#000000; stroke-width:196.85; stroke-opacity:1;  stroke-linecap:round; stroke-linejoin:round;"
     id="g1825">
    <path
       d="M64826 14259 L66014 14279 "
       id="path1823" />
  </g>
  <g
     style="fill:#000000; fill-opacity:0.0;  stroke:#000000; stroke-width:787.402; stroke-opacity:1;  stroke-linecap:round; stroke-linejoin:round;"
     id="g1831">
    <path
       d="M66003 13492 L66014 14279 "
       id="path1827" />
    <path
       d="M66014 14279 L66023 15019 "
       id="path1829" />
  </g>
  <g
     style="fill:#000000; fill-opacity:0.0;  stroke:#000000; stroke-width:196.85; stroke-opacity:1;  stroke-linecap:round; stroke-linejoin:round;"
     id="g1841">
    <path
       d="M62011 10688 L62635 9838 "
       id="path1833" />
    <path
       d="M59251 10712 L62011 10688 "
       id="path1835" />
    <path
       d="M58094 10533 L59066 10547 "
       id="path1837" />
    <path
       d="M59066 10547 L59251 10712 "
       id="path1839" />
  </g>
  <g
     style="fill:#000000; fill-opacity:0.0;  stroke:#000000; stroke-width:98.4252; stroke-opacity:1;  stroke-linecap:round; stroke-linejoin:round;"
     id="g1881">
    <path
       d="M55448 11212 L57078 9822 "
       id="path1843" />
    <path
       d="M54078 9822 L53913 11990 "
       id="path1845" />
    <path
       d="M54700 11212 L54704 12110 "
       id="path1847" />
    <path
       d="M54704 12110 L54413 12456 "
       id="path1849" />
    <path
       d="M54413 12456 L53913 12490 "
       id="path1851" />
    <path
       d="M56303 14614 L56318 17188 "
       id="path1853" />
    <path
       d="M56303 14614 L55988 14295 "
       id="path1855" />
    <path
       d="M55988 14295 L55960 13490 "
       id="path1857" />
    <path
       d="M56318 17188 L56814 17791 "
       id="path1859" />
    <path
       d="M56814 17791 L57173 17240 "
       id="path1861" />
    <path
       d="M57173 17240 L57594 17047 "
       id="path1863" />
    <path
       d="M56838 14818 L57224 14181 "
       id="path1865" />
    <path
       d="M55960 12990 L56440 13208 "
       id="path1867" />
    <path
       d="M56440 13208 L56468 14271 "
       id="path1869" />
    <path
       d="M56468 14271 L56838 14818 "
       id="path1871" />
    <path
       d="M57224 14181 L57594 14066 "
       id="path1873" />
    <path
       d="M56830 11862 L57094 11200 "
       id="path1875" />
    <path
       d="M56830 11862 L55960 12490 "
       id="path1877" />
    <path
       d="M57094 11200 L57610 11094 "
       id="path1879" />
  </g>
</svg>
