G04 #@! TF.GenerationSoftware,KiCad,Pcbnew,(5.0.0)*
G04 #@! TF.CreationDate,2020-05-23T19:44:19-07:00*
G04 #@! TF.ProjectId,WS2811 Expander,57533238313120457870616E6465722E,rev?*
G04 #@! TF.SameCoordinates,Original*
G04 #@! TF.FileFunction,Soldermask,Top*
G04 #@! TF.FilePolarity,Negative*
%FSLAX46Y46*%
G04 Gerber Fmt 4.6, Leading zero omitted, Abs format (unit mm)*
G04 Created by KiCad (PCBNEW (5.0.0)) date 05/23/20 19:44:19*
%MOMM*%
%LPD*%
G01*
G04 APERTURE LIST*
%ADD10R,0.900000X1.300000*%
%ADD11R,1.300000X0.900000*%
%ADD12R,1.200000X1.150000*%
%ADD13R,2.100000X2.100000*%
%ADD14O,2.100000X2.100000*%
%ADD15R,6.800000X6.200000*%
%ADD16R,2.600000X1.600000*%
%ADD17C,3.400000*%
%ADD18R,1.300000X1.200000*%
%ADD19R,1.500000X0.900000*%
G04 APERTURE END LIST*
D10*
G04 #@! TO.C,R11 *
X139140000Y-28480000D03*
X140640000Y-28480000D03*
G04 #@! TD*
G04 #@! TO.C,R6 *
X146490000Y-33790000D03*
X147990000Y-33790000D03*
G04 #@! TD*
G04 #@! TO.C,R8 *
X141730000Y-38580000D03*
X140230000Y-38580000D03*
G04 #@! TD*
G04 #@! TO.C,R7 *
X136780000Y-38580000D03*
X138280000Y-38580000D03*
G04 #@! TD*
G04 #@! TO.C,R4 *
X146490000Y-48880000D03*
X147990000Y-48880000D03*
G04 #@! TD*
G04 #@! TO.C,R5 *
X146490000Y-41360000D03*
X147990000Y-41360000D03*
G04 #@! TD*
D11*
G04 #@! TO.C,R12*
X144310000Y-46890000D03*
X144310000Y-45390000D03*
G04 #@! TD*
G04 #@! TO.C,R13*
X144370000Y-39340000D03*
X144370000Y-37840000D03*
G04 #@! TD*
D10*
G04 #@! TO.C,R1*
X147990000Y-43300000D03*
X146490000Y-43300000D03*
G04 #@! TD*
G04 #@! TO.C,R2*
X147990000Y-35730000D03*
X146490000Y-35730000D03*
G04 #@! TD*
D11*
G04 #@! TO.C,R14*
X144350000Y-31830000D03*
X144350000Y-30330000D03*
G04 #@! TD*
D12*
G04 #@! TO.C,C1 *
X140330000Y-36390000D03*
X138830000Y-36390000D03*
G04 #@! TD*
D10*
G04 #@! TO.C,R3*
X148030000Y-28180000D03*
X146530000Y-28180000D03*
G04 #@! TD*
D13*
G04 #@! TO.C,J3*
X137360000Y-24950000D03*
D14*
X139900000Y-24950000D03*
X142440000Y-24950000D03*
X144980000Y-24950000D03*
X147520000Y-24950000D03*
X150060000Y-24950000D03*
G04 #@! TD*
D13*
G04 #@! TO.C, R10*
X141240000Y-45190000D03*
D14*
X141240000Y-42650000D03*
G04 #@! TD*
D13*
G04 #@! TO.C,R9 *
X137460000Y-45190000D03*
D14*
X137460000Y-42650000D03*
G04 #@! TD*
D15*
G04 #@! TO.C,Q2*
X152960000Y-45740000D03*
D16*
X159260000Y-43460000D03*
X159260000Y-48020000D03*
G04 #@! TD*
G04 #@! TO.C,Q5*
X159260000Y-40780000D03*
X159260000Y-36220000D03*
D15*
X152960000Y-38500000D03*
G04 #@! TD*
G04 #@! TO.C,Q6*
X152960000Y-31260000D03*
D16*
X159260000Y-28980000D03*
X159260000Y-33540000D03*
G04 #@! TD*
D17*
G04 #@! TO.C,J2 *
X164660000Y-28300000D03*
X164660000Y-32260000D03*
X164660000Y-36220000D03*
X164660000Y-40180000D03*
X164660000Y-44140000D03*
X164660000Y-48100000D03*
G04 #@! TD*
G04 #@! TO.C,J1 *
X155135000Y-24990000D03*
X159095000Y-24990000D03*
G04 #@! TD*
D18*
G04 #@! TO.C,Q1 *
X148240000Y-46110000D03*
X146240000Y-47060000D03*
X146240000Y-45160000D03*
G04 #@! TD*
D19*
G04 #@! TO.C,U1*
X142140000Y-30455000D03*
X136940000Y-30455000D03*
X142140000Y-31725000D03*
X142140000Y-32995000D03*
X142140000Y-34265000D03*
X136940000Y-31725000D03*
X136940000Y-32995000D03*
X136940000Y-34265000D03*
G04 #@! TD*
D18*
G04 #@! TO.C,Q3 *
X146240000Y-37605000D03*
X146240000Y-39505000D03*
X148240000Y-38555000D03*
G04 #@! TD*
G04 #@! TO.C,Q4 *
X148240000Y-31000000D03*
X146240000Y-31950000D03*
X146240000Y-30050000D03*
G04 #@! TD*
M02*
