G04 #@! TF.GenerationSoftware,KiCad,Pcbnew,(5.0.0)*
G04 #@! TF.CreationDate,2020-05-23T19:44:18-07:00*
G04 #@! TF.ProjectId,WS2811 Expander,57533238313120457870616E6465722E,rev?*
G04 #@! TF.SameCoordinates,Original*
G04 #@! TF.FileFunction,Legend,Top*
G04 #@! TF.FilePolarity,Positive*
%FSLAX46Y46*%
G04 Gerber Fmt 4.6, Leading zero omitted, Abs format (unit mm)*
G04 Created by KiCad (PCBNEW (5.0.0)) date 05/23/20 19:44:18*
%MOMM*%
%LPD*%
G01*
G04 APERTURE LIST*
%ADD10C,0.200000*%
%ADD11C,0.075000*%
%ADD12C,0.150000*%
%ADD13C,0.100000*%
%ADD14C,0.120000*%
G04 APERTURE END LIST*
D10*
X138950000Y-43690000D02*
X138760000Y-43640000D01*
X138780000Y-43930000D02*
X138950000Y-43690000D01*
X138760000Y-43690000D02*
X138780000Y-43930000D01*
X139360000Y-44120000D02*
X138760000Y-43690000D01*
X139950000Y-43880000D02*
X140000000Y-43690000D01*
X139740000Y-43620000D02*
X139950000Y-43880000D01*
X140030000Y-43620000D02*
X139740000Y-43620000D01*
X139330000Y-44140000D02*
X140030000Y-43620000D01*
X139330000Y-46890000D02*
X139330000Y-44140000D01*
D11*
X144123809Y-31270952D02*
X143895238Y-31270952D01*
X144009523Y-31270952D02*
X144009523Y-30870952D01*
X143971428Y-30928095D01*
X143933333Y-30966190D01*
X143895238Y-30985238D01*
X144371428Y-30870952D02*
X144409523Y-30870952D01*
X144447619Y-30890000D01*
X144466666Y-30909047D01*
X144485714Y-30947142D01*
X144504761Y-31023333D01*
X144504761Y-31118571D01*
X144485714Y-31194761D01*
X144466666Y-31232857D01*
X144447619Y-31251904D01*
X144409523Y-31270952D01*
X144371428Y-31270952D01*
X144333333Y-31251904D01*
X144314285Y-31232857D01*
X144295238Y-31194761D01*
X144276190Y-31118571D01*
X144276190Y-31023333D01*
X144295238Y-30947142D01*
X144314285Y-30909047D01*
X144333333Y-30890000D01*
X144371428Y-30870952D01*
X144676190Y-31270952D02*
X144676190Y-30870952D01*
X144904761Y-31270952D02*
X144733333Y-31042380D01*
X144904761Y-30870952D02*
X144676190Y-31099523D01*
X144163809Y-38760952D02*
X143935238Y-38760952D01*
X144049523Y-38760952D02*
X144049523Y-38360952D01*
X144011428Y-38418095D01*
X143973333Y-38456190D01*
X143935238Y-38475238D01*
X144411428Y-38360952D02*
X144449523Y-38360952D01*
X144487619Y-38380000D01*
X144506666Y-38399047D01*
X144525714Y-38437142D01*
X144544761Y-38513333D01*
X144544761Y-38608571D01*
X144525714Y-38684761D01*
X144506666Y-38722857D01*
X144487619Y-38741904D01*
X144449523Y-38760952D01*
X144411428Y-38760952D01*
X144373333Y-38741904D01*
X144354285Y-38722857D01*
X144335238Y-38684761D01*
X144316190Y-38608571D01*
X144316190Y-38513333D01*
X144335238Y-38437142D01*
X144354285Y-38399047D01*
X144373333Y-38380000D01*
X144411428Y-38360952D01*
X144716190Y-38760952D02*
X144716190Y-38360952D01*
X144944761Y-38760952D02*
X144773333Y-38532380D01*
X144944761Y-38360952D02*
X144716190Y-38589523D01*
X144083809Y-46300952D02*
X143855238Y-46300952D01*
X143969523Y-46300952D02*
X143969523Y-45900952D01*
X143931428Y-45958095D01*
X143893333Y-45996190D01*
X143855238Y-46015238D01*
X144331428Y-45900952D02*
X144369523Y-45900952D01*
X144407619Y-45920000D01*
X144426666Y-45939047D01*
X144445714Y-45977142D01*
X144464761Y-46053333D01*
X144464761Y-46148571D01*
X144445714Y-46224761D01*
X144426666Y-46262857D01*
X144407619Y-46281904D01*
X144369523Y-46300952D01*
X144331428Y-46300952D01*
X144293333Y-46281904D01*
X144274285Y-46262857D01*
X144255238Y-46224761D01*
X144236190Y-46148571D01*
X144236190Y-46053333D01*
X144255238Y-45977142D01*
X144274285Y-45939047D01*
X144293333Y-45920000D01*
X144331428Y-45900952D01*
X144636190Y-46300952D02*
X144636190Y-45900952D01*
X144864761Y-46300952D02*
X144693333Y-46072380D01*
X144864761Y-45900952D02*
X144636190Y-46129523D01*
D12*
X139101904Y-34547619D02*
X139901904Y-34357142D01*
X139330476Y-34204761D01*
X139901904Y-34052380D01*
X139101904Y-33861904D01*
X139863809Y-33595238D02*
X139901904Y-33480952D01*
X139901904Y-33290476D01*
X139863809Y-33214285D01*
X139825714Y-33176190D01*
X139749523Y-33138095D01*
X139673333Y-33138095D01*
X139597142Y-33176190D01*
X139559047Y-33214285D01*
X139520952Y-33290476D01*
X139482857Y-33442857D01*
X139444761Y-33519047D01*
X139406666Y-33557142D01*
X139330476Y-33595238D01*
X139254285Y-33595238D01*
X139178095Y-33557142D01*
X139140000Y-33519047D01*
X139101904Y-33442857D01*
X139101904Y-33252380D01*
X139140000Y-33138095D01*
X139178095Y-32833333D02*
X139140000Y-32795238D01*
X139101904Y-32719047D01*
X139101904Y-32528571D01*
X139140000Y-32452380D01*
X139178095Y-32414285D01*
X139254285Y-32376190D01*
X139330476Y-32376190D01*
X139444761Y-32414285D01*
X139901904Y-32871428D01*
X139901904Y-32376190D01*
X139444761Y-31919047D02*
X139406666Y-31995238D01*
X139368571Y-32033333D01*
X139292380Y-32071428D01*
X139254285Y-32071428D01*
X139178095Y-32033333D01*
X139140000Y-31995238D01*
X139101904Y-31919047D01*
X139101904Y-31766666D01*
X139140000Y-31690476D01*
X139178095Y-31652380D01*
X139254285Y-31614285D01*
X139292380Y-31614285D01*
X139368571Y-31652380D01*
X139406666Y-31690476D01*
X139444761Y-31766666D01*
X139444761Y-31919047D01*
X139482857Y-31995238D01*
X139520952Y-32033333D01*
X139597142Y-32071428D01*
X139749523Y-32071428D01*
X139825714Y-32033333D01*
X139863809Y-31995238D01*
X139901904Y-31919047D01*
X139901904Y-31766666D01*
X139863809Y-31690476D01*
X139825714Y-31652380D01*
X139749523Y-31614285D01*
X139597142Y-31614285D01*
X139520952Y-31652380D01*
X139482857Y-31690476D01*
X139444761Y-31766666D01*
X139901904Y-30852380D02*
X139901904Y-31309523D01*
X139901904Y-31080952D02*
X139101904Y-31080952D01*
X139216190Y-31157142D01*
X139292380Y-31233333D01*
X139330476Y-31309523D01*
X139901904Y-30090476D02*
X139901904Y-30547619D01*
X139901904Y-30319047D02*
X139101904Y-30319047D01*
X139216190Y-30395238D01*
X139292380Y-30471428D01*
X139330476Y-30547619D01*
X144877142Y-27071428D02*
X144877142Y-26471428D01*
X145020000Y-26471428D01*
X145105714Y-26500000D01*
X145162857Y-26557142D01*
X145191428Y-26614285D01*
X145220000Y-26728571D01*
X145220000Y-26814285D01*
X145191428Y-26928571D01*
X145162857Y-26985714D01*
X145105714Y-27042857D01*
X145020000Y-27071428D01*
X144877142Y-27071428D01*
X145477142Y-27071428D02*
X145477142Y-26471428D01*
X145762857Y-27071428D02*
X145762857Y-26471428D01*
X146105714Y-27071428D01*
X146105714Y-26471428D01*
X146762857Y-26471428D02*
X146962857Y-27071428D01*
X147162857Y-26471428D01*
X147705714Y-27014285D02*
X147677142Y-27042857D01*
X147591428Y-27071428D01*
X147534285Y-27071428D01*
X147448571Y-27042857D01*
X147391428Y-26985714D01*
X147362857Y-26928571D01*
X147334285Y-26814285D01*
X147334285Y-26728571D01*
X147362857Y-26614285D01*
X147391428Y-26557142D01*
X147448571Y-26500000D01*
X147534285Y-26471428D01*
X147591428Y-26471428D01*
X147677142Y-26500000D01*
X147705714Y-26528571D01*
X148305714Y-27014285D02*
X148277142Y-27042857D01*
X148191428Y-27071428D01*
X148134285Y-27071428D01*
X148048571Y-27042857D01*
X147991428Y-26985714D01*
X147962857Y-26928571D01*
X147934285Y-26814285D01*
X147934285Y-26728571D01*
X147962857Y-26614285D01*
X147991428Y-26557142D01*
X148048571Y-26500000D01*
X148134285Y-26471428D01*
X148191428Y-26471428D01*
X148277142Y-26500000D01*
X148305714Y-26528571D01*
X149334285Y-26500000D02*
X149277142Y-26471428D01*
X149191428Y-26471428D01*
X149105714Y-26500000D01*
X149048571Y-26557142D01*
X149020000Y-26614285D01*
X148991428Y-26728571D01*
X148991428Y-26814285D01*
X149020000Y-26928571D01*
X149048571Y-26985714D01*
X149105714Y-27042857D01*
X149191428Y-27071428D01*
X149248571Y-27071428D01*
X149334285Y-27042857D01*
X149362857Y-27014285D01*
X149362857Y-26814285D01*
X149248571Y-26814285D01*
X149620000Y-27071428D02*
X149620000Y-26471428D01*
X149962857Y-27071428D01*
X149962857Y-26471428D01*
X150248571Y-27071428D02*
X150248571Y-26471428D01*
X150391428Y-26471428D01*
X150477142Y-26500000D01*
X150534285Y-26557142D01*
X150562857Y-26614285D01*
X150591428Y-26728571D01*
X150591428Y-26814285D01*
X150562857Y-26928571D01*
X150534285Y-26985714D01*
X150477142Y-27042857D01*
X150391428Y-27071428D01*
X150248571Y-27071428D01*
D10*
X161499033Y-34250000D02*
X168940000Y-34250000D01*
X161438683Y-42150000D02*
X168880000Y-42150000D01*
D11*
X139660952Y-28823809D02*
X139660952Y-28576190D01*
X139813333Y-28709523D01*
X139813333Y-28652380D01*
X139832380Y-28614285D01*
X139851428Y-28595238D01*
X139889523Y-28576190D01*
X139984761Y-28576190D01*
X140022857Y-28595238D01*
X140041904Y-28614285D01*
X140060952Y-28652380D01*
X140060952Y-28766666D01*
X140041904Y-28804761D01*
X140022857Y-28823809D01*
X139660952Y-28442857D02*
X139660952Y-28195238D01*
X139813333Y-28328571D01*
X139813333Y-28271428D01*
X139832380Y-28233333D01*
X139851428Y-28214285D01*
X139889523Y-28195238D01*
X139984761Y-28195238D01*
X140022857Y-28214285D01*
X140041904Y-28233333D01*
X140060952Y-28271428D01*
X140060952Y-28385714D01*
X140041904Y-28423809D01*
X140022857Y-28442857D01*
D10*
X160890000Y-26690230D02*
X160890000Y-23220000D01*
X153270000Y-26751713D02*
X153270000Y-23220000D01*
X153270000Y-26750000D02*
X160900000Y-26750000D01*
D13*
X161459047Y-24191904D02*
X161459047Y-23391904D01*
X161763809Y-23391904D01*
X161840000Y-23430000D01*
X161878095Y-23468095D01*
X161916190Y-23544285D01*
X161916190Y-23658571D01*
X161878095Y-23734761D01*
X161840000Y-23772857D01*
X161763809Y-23810952D01*
X161459047Y-23810952D01*
X162373333Y-24191904D02*
X162297142Y-24153809D01*
X162259047Y-24115714D01*
X162220952Y-24039523D01*
X162220952Y-23810952D01*
X162259047Y-23734761D01*
X162297142Y-23696666D01*
X162373333Y-23658571D01*
X162487619Y-23658571D01*
X162563809Y-23696666D01*
X162601904Y-23734761D01*
X162640000Y-23810952D01*
X162640000Y-24039523D01*
X162601904Y-24115714D01*
X162563809Y-24153809D01*
X162487619Y-24191904D01*
X162373333Y-24191904D01*
X162906666Y-23658571D02*
X163059047Y-24191904D01*
X163211428Y-23810952D01*
X163363809Y-24191904D01*
X163516190Y-23658571D01*
X164125714Y-24153809D02*
X164049523Y-24191904D01*
X163897142Y-24191904D01*
X163820952Y-24153809D01*
X163782857Y-24077619D01*
X163782857Y-23772857D01*
X163820952Y-23696666D01*
X163897142Y-23658571D01*
X164049523Y-23658571D01*
X164125714Y-23696666D01*
X164163809Y-23772857D01*
X164163809Y-23849047D01*
X163782857Y-23925238D01*
X164506666Y-24191904D02*
X164506666Y-23658571D01*
X164506666Y-23810952D02*
X164544761Y-23734761D01*
X164582857Y-23696666D01*
X164659047Y-23658571D01*
X164735238Y-23658571D01*
D12*
X168467142Y-33470952D02*
X168467142Y-32861428D01*
X168771904Y-31490000D02*
X168771904Y-31870952D01*
X167971904Y-31870952D01*
X168352857Y-31223333D02*
X168352857Y-30956666D01*
X168771904Y-30842380D02*
X168771904Y-31223333D01*
X167971904Y-31223333D01*
X167971904Y-30842380D01*
X168771904Y-30499523D02*
X167971904Y-30499523D01*
X167971904Y-30309047D01*
X168010000Y-30194761D01*
X168086190Y-30118571D01*
X168162380Y-30080476D01*
X168314761Y-30042380D01*
X168429047Y-30042380D01*
X168581428Y-30080476D01*
X168657619Y-30118571D01*
X168733809Y-30194761D01*
X168771904Y-30309047D01*
X168771904Y-30499523D01*
X167971904Y-29166190D02*
X167971904Y-28670952D01*
X168276666Y-28937619D01*
X168276666Y-28823333D01*
X168314761Y-28747142D01*
X168352857Y-28709047D01*
X168429047Y-28670952D01*
X168619523Y-28670952D01*
X168695714Y-28709047D01*
X168733809Y-28747142D01*
X168771904Y-28823333D01*
X168771904Y-29051904D01*
X168733809Y-29128095D01*
X168695714Y-29166190D01*
X168467142Y-27718571D02*
X168467142Y-27109047D01*
X168771904Y-27413809D02*
X168162380Y-27413809D01*
X168467142Y-41440952D02*
X168467142Y-40831428D01*
X168771904Y-39460000D02*
X168771904Y-39840952D01*
X167971904Y-39840952D01*
X168352857Y-39193333D02*
X168352857Y-38926666D01*
X168771904Y-38812380D02*
X168771904Y-39193333D01*
X167971904Y-39193333D01*
X167971904Y-38812380D01*
X168771904Y-38469523D02*
X167971904Y-38469523D01*
X167971904Y-38279047D01*
X168010000Y-38164761D01*
X168086190Y-38088571D01*
X168162380Y-38050476D01*
X168314761Y-38012380D01*
X168429047Y-38012380D01*
X168581428Y-38050476D01*
X168657619Y-38088571D01*
X168733809Y-38164761D01*
X168771904Y-38279047D01*
X168771904Y-38469523D01*
X168048095Y-37098095D02*
X168010000Y-37060000D01*
X167971904Y-36983809D01*
X167971904Y-36793333D01*
X168010000Y-36717142D01*
X168048095Y-36679047D01*
X168124285Y-36640952D01*
X168200476Y-36640952D01*
X168314761Y-36679047D01*
X168771904Y-37136190D01*
X168771904Y-36640952D01*
X168467142Y-35688571D02*
X168467142Y-35079047D01*
X168771904Y-35383809D02*
X168162380Y-35383809D01*
X168467142Y-49410952D02*
X168467142Y-48801428D01*
X168771904Y-47430000D02*
X168771904Y-47810952D01*
X167971904Y-47810952D01*
X168352857Y-47163333D02*
X168352857Y-46896666D01*
X168771904Y-46782380D02*
X168771904Y-47163333D01*
X167971904Y-47163333D01*
X167971904Y-46782380D01*
X168771904Y-46439523D02*
X167971904Y-46439523D01*
X167971904Y-46249047D01*
X168010000Y-46134761D01*
X168086190Y-46058571D01*
X168162380Y-46020476D01*
X168314761Y-45982380D01*
X168429047Y-45982380D01*
X168581428Y-46020476D01*
X168657619Y-46058571D01*
X168733809Y-46134761D01*
X168771904Y-46249047D01*
X168771904Y-46439523D01*
X168771904Y-44610952D02*
X168771904Y-45068095D01*
X168771904Y-44839523D02*
X167971904Y-44839523D01*
X168086190Y-44915714D01*
X168162380Y-44991904D01*
X168200476Y-45068095D01*
X168467142Y-43658571D02*
X168467142Y-43049047D01*
X168771904Y-43353809D02*
X168162380Y-43353809D01*
D13*
X161212857Y-24985714D02*
X162127142Y-24985714D01*
X161670000Y-25442857D02*
X161670000Y-24528571D01*
X151852857Y-24985714D02*
X152767142Y-24985714D01*
D12*
X136637142Y-27151428D02*
X136637142Y-26551428D01*
X136780000Y-26551428D01*
X136865714Y-26580000D01*
X136922857Y-26637142D01*
X136951428Y-26694285D01*
X136980000Y-26808571D01*
X136980000Y-26894285D01*
X136951428Y-27008571D01*
X136922857Y-27065714D01*
X136865714Y-27122857D01*
X136780000Y-27151428D01*
X136637142Y-27151428D01*
X137351428Y-26551428D02*
X137465714Y-26551428D01*
X137522857Y-26580000D01*
X137580000Y-26637142D01*
X137608571Y-26751428D01*
X137608571Y-26951428D01*
X137580000Y-27065714D01*
X137522857Y-27122857D01*
X137465714Y-27151428D01*
X137351428Y-27151428D01*
X137294285Y-27122857D01*
X137237142Y-27065714D01*
X137208571Y-26951428D01*
X137208571Y-26751428D01*
X137237142Y-26637142D01*
X137294285Y-26580000D01*
X137351428Y-26551428D01*
X137865714Y-26551428D02*
X137865714Y-27037142D01*
X137894285Y-27094285D01*
X137922857Y-27122857D01*
X137980000Y-27151428D01*
X138094285Y-27151428D01*
X138151428Y-27122857D01*
X138180000Y-27094285D01*
X138208571Y-27037142D01*
X138208571Y-26551428D01*
X138408571Y-26551428D02*
X138751428Y-26551428D01*
X138580000Y-27151428D02*
X138580000Y-26551428D01*
X139322857Y-26551428D02*
X139522857Y-27151428D01*
X139722857Y-26551428D01*
X140265714Y-27094285D02*
X140237142Y-27122857D01*
X140151428Y-27151428D01*
X140094285Y-27151428D01*
X140008571Y-27122857D01*
X139951428Y-27065714D01*
X139922857Y-27008571D01*
X139894285Y-26894285D01*
X139894285Y-26808571D01*
X139922857Y-26694285D01*
X139951428Y-26637142D01*
X140008571Y-26580000D01*
X140094285Y-26551428D01*
X140151428Y-26551428D01*
X140237142Y-26580000D01*
X140265714Y-26608571D01*
X140865714Y-27094285D02*
X140837142Y-27122857D01*
X140751428Y-27151428D01*
X140694285Y-27151428D01*
X140608571Y-27122857D01*
X140551428Y-27065714D01*
X140522857Y-27008571D01*
X140494285Y-26894285D01*
X140494285Y-26808571D01*
X140522857Y-26694285D01*
X140551428Y-26637142D01*
X140608571Y-26580000D01*
X140694285Y-26551428D01*
X140751428Y-26551428D01*
X140837142Y-26580000D01*
X140865714Y-26608571D01*
X141894285Y-26580000D02*
X141837142Y-26551428D01*
X141751428Y-26551428D01*
X141665714Y-26580000D01*
X141608571Y-26637142D01*
X141580000Y-26694285D01*
X141551428Y-26808571D01*
X141551428Y-26894285D01*
X141580000Y-27008571D01*
X141608571Y-27065714D01*
X141665714Y-27122857D01*
X141751428Y-27151428D01*
X141808571Y-27151428D01*
X141894285Y-27122857D01*
X141922857Y-27094285D01*
X141922857Y-26894285D01*
X141808571Y-26894285D01*
X142180000Y-27151428D02*
X142180000Y-26551428D01*
X142522857Y-27151428D01*
X142522857Y-26551428D01*
X142808571Y-27151428D02*
X142808571Y-26551428D01*
X142951428Y-26551428D01*
X143037142Y-26580000D01*
X143094285Y-26637142D01*
X143122857Y-26694285D01*
X143151428Y-26808571D01*
X143151428Y-26894285D01*
X143122857Y-27008571D01*
X143094285Y-27065714D01*
X143037142Y-27122857D01*
X142951428Y-27151428D01*
X142808571Y-27151428D01*
D11*
X147420952Y-28305714D02*
X147420952Y-28534285D01*
X147420952Y-28420000D02*
X147020952Y-28420000D01*
X147078095Y-28458095D01*
X147116190Y-28496190D01*
X147135238Y-28534285D01*
X147420952Y-28134285D02*
X147020952Y-28134285D01*
X147420952Y-27905714D02*
X147192380Y-28077142D01*
X147020952Y-27905714D02*
X147249523Y-28134285D01*
X147450952Y-35825714D02*
X147450952Y-36054285D01*
X147450952Y-35940000D02*
X147050952Y-35940000D01*
X147108095Y-35978095D01*
X147146190Y-36016190D01*
X147165238Y-36054285D01*
X147450952Y-35654285D02*
X147050952Y-35654285D01*
X147450952Y-35425714D02*
X147222380Y-35597142D01*
X147050952Y-35425714D02*
X147279523Y-35654285D01*
X147440952Y-43405714D02*
X147440952Y-43634285D01*
X147440952Y-43520000D02*
X147040952Y-43520000D01*
X147098095Y-43558095D01*
X147136190Y-43596190D01*
X147155238Y-43634285D01*
X147440952Y-43234285D02*
X147040952Y-43234285D01*
X147440952Y-43005714D02*
X147212380Y-43177142D01*
X147040952Y-43005714D02*
X147269523Y-43234285D01*
X147420952Y-33855714D02*
X147420952Y-34084285D01*
X147420952Y-33970000D02*
X147020952Y-33970000D01*
X147078095Y-34008095D01*
X147116190Y-34046190D01*
X147135238Y-34084285D01*
X147420952Y-33684285D02*
X147020952Y-33684285D01*
X147420952Y-33455714D02*
X147192380Y-33627142D01*
X147020952Y-33455714D02*
X147249523Y-33684285D01*
X147440952Y-41445714D02*
X147440952Y-41674285D01*
X147440952Y-41560000D02*
X147040952Y-41560000D01*
X147098095Y-41598095D01*
X147136190Y-41636190D01*
X147155238Y-41674285D01*
X147440952Y-41274285D02*
X147040952Y-41274285D01*
X147440952Y-41045714D02*
X147212380Y-41217142D01*
X147040952Y-41045714D02*
X147269523Y-41274285D01*
X147430952Y-48975714D02*
X147430952Y-49204285D01*
X147430952Y-49090000D02*
X147030952Y-49090000D01*
X147088095Y-49128095D01*
X147126190Y-49166190D01*
X147145238Y-49204285D01*
X147430952Y-48804285D02*
X147030952Y-48804285D01*
X147430952Y-48575714D02*
X147202380Y-48747142D01*
X147030952Y-48575714D02*
X147259523Y-48804285D01*
X139725714Y-36834285D02*
X139725714Y-37005714D01*
X139725714Y-36920000D02*
X139425714Y-36920000D01*
X139468571Y-36948571D01*
X139497142Y-36977142D01*
X139511428Y-37005714D01*
X139425714Y-36648571D02*
X139425714Y-36620000D01*
X139440000Y-36591428D01*
X139454285Y-36577142D01*
X139482857Y-36562857D01*
X139540000Y-36548571D01*
X139611428Y-36548571D01*
X139668571Y-36562857D01*
X139697142Y-36577142D01*
X139711428Y-36591428D01*
X139725714Y-36620000D01*
X139725714Y-36648571D01*
X139711428Y-36677142D01*
X139697142Y-36691428D01*
X139668571Y-36705714D01*
X139611428Y-36720000D01*
X139540000Y-36720000D01*
X139482857Y-36705714D01*
X139454285Y-36691428D01*
X139440000Y-36677142D01*
X139425714Y-36648571D01*
X139425714Y-36362857D02*
X139425714Y-36334285D01*
X139440000Y-36305714D01*
X139454285Y-36291428D01*
X139482857Y-36277142D01*
X139540000Y-36262857D01*
X139611428Y-36262857D01*
X139668571Y-36277142D01*
X139697142Y-36291428D01*
X139711428Y-36305714D01*
X139725714Y-36334285D01*
X139725714Y-36362857D01*
X139711428Y-36391428D01*
X139697142Y-36405714D01*
X139668571Y-36420000D01*
X139611428Y-36434285D01*
X139540000Y-36434285D01*
X139482857Y-36420000D01*
X139454285Y-36405714D01*
X139440000Y-36391428D01*
X139425714Y-36362857D01*
X139525714Y-36134285D02*
X139725714Y-36134285D01*
X139554285Y-36134285D02*
X139540000Y-36120000D01*
X139525714Y-36091428D01*
X139525714Y-36048571D01*
X139540000Y-36020000D01*
X139568571Y-36005714D01*
X139725714Y-36005714D01*
X139568571Y-35762857D02*
X139568571Y-35862857D01*
X139725714Y-35862857D02*
X139425714Y-35862857D01*
X139425714Y-35720000D01*
X140819047Y-39140000D02*
X140800000Y-39120952D01*
X140780952Y-39082857D01*
X140780952Y-38987619D01*
X140800000Y-38949523D01*
X140819047Y-38930476D01*
X140857142Y-38911428D01*
X140895238Y-38911428D01*
X140952380Y-38930476D01*
X141180952Y-39159047D01*
X141180952Y-38911428D01*
X141142857Y-38740000D02*
X141161904Y-38720952D01*
X141180952Y-38740000D01*
X141161904Y-38759047D01*
X141142857Y-38740000D01*
X141180952Y-38740000D01*
X140780952Y-38587619D02*
X140780952Y-38320952D01*
X141180952Y-38492380D01*
X141180952Y-38168571D02*
X140780952Y-38168571D01*
X141180952Y-37940000D02*
X140952380Y-38111428D01*
X140780952Y-37940000D02*
X141009523Y-38168571D01*
X137710952Y-38876666D02*
X137710952Y-39105238D01*
X137710952Y-38990952D02*
X137310952Y-38990952D01*
X137368095Y-39029047D01*
X137406190Y-39067142D01*
X137425238Y-39105238D01*
X137310952Y-38629047D02*
X137310952Y-38590952D01*
X137330000Y-38552857D01*
X137349047Y-38533809D01*
X137387142Y-38514761D01*
X137463333Y-38495714D01*
X137558571Y-38495714D01*
X137634761Y-38514761D01*
X137672857Y-38533809D01*
X137691904Y-38552857D01*
X137710952Y-38590952D01*
X137710952Y-38629047D01*
X137691904Y-38667142D01*
X137672857Y-38686190D01*
X137634761Y-38705238D01*
X137558571Y-38724285D01*
X137463333Y-38724285D01*
X137387142Y-38705238D01*
X137349047Y-38686190D01*
X137330000Y-38667142D01*
X137310952Y-38629047D01*
X137310952Y-38248095D02*
X137310952Y-38210000D01*
X137330000Y-38171904D01*
X137349047Y-38152857D01*
X137387142Y-38133809D01*
X137463333Y-38114761D01*
X137558571Y-38114761D01*
X137634761Y-38133809D01*
X137672857Y-38152857D01*
X137691904Y-38171904D01*
X137710952Y-38210000D01*
X137710952Y-38248095D01*
X137691904Y-38286190D01*
X137672857Y-38305238D01*
X137634761Y-38324285D01*
X137558571Y-38343333D01*
X137463333Y-38343333D01*
X137387142Y-38324285D01*
X137349047Y-38305238D01*
X137330000Y-38286190D01*
X137310952Y-38248095D01*
D12*
X139444761Y-48078809D02*
X139559047Y-48116904D01*
X139749523Y-48116904D01*
X139825714Y-48078809D01*
X139863809Y-48040714D01*
X139901904Y-47964523D01*
X139901904Y-47888333D01*
X139863809Y-47812142D01*
X139825714Y-47774047D01*
X139749523Y-47735952D01*
X139597142Y-47697857D01*
X139520952Y-47659761D01*
X139482857Y-47621666D01*
X139444761Y-47545476D01*
X139444761Y-47469285D01*
X139482857Y-47393095D01*
X139520952Y-47355000D01*
X139597142Y-47316904D01*
X139787619Y-47316904D01*
X139901904Y-47355000D01*
X140549523Y-48078809D02*
X140473333Y-48116904D01*
X140320952Y-48116904D01*
X140244761Y-48078809D01*
X140206666Y-48002619D01*
X140206666Y-47697857D01*
X140244761Y-47621666D01*
X140320952Y-47583571D01*
X140473333Y-47583571D01*
X140549523Y-47621666D01*
X140587619Y-47697857D01*
X140587619Y-47774047D01*
X140206666Y-47850238D01*
X141044761Y-48116904D02*
X140968571Y-48078809D01*
X140930476Y-48002619D01*
X140930476Y-47316904D01*
X141654285Y-48078809D02*
X141578095Y-48116904D01*
X141425714Y-48116904D01*
X141349523Y-48078809D01*
X141311428Y-48002619D01*
X141311428Y-47697857D01*
X141349523Y-47621666D01*
X141425714Y-47583571D01*
X141578095Y-47583571D01*
X141654285Y-47621666D01*
X141692380Y-47697857D01*
X141692380Y-47774047D01*
X141311428Y-47850238D01*
X142378095Y-48078809D02*
X142301904Y-48116904D01*
X142149523Y-48116904D01*
X142073333Y-48078809D01*
X142035238Y-48040714D01*
X141997142Y-47964523D01*
X141997142Y-47735952D01*
X142035238Y-47659761D01*
X142073333Y-47621666D01*
X142149523Y-47583571D01*
X142301904Y-47583571D01*
X142378095Y-47621666D01*
X142606666Y-47583571D02*
X142911428Y-47583571D01*
X142720952Y-47316904D02*
X142720952Y-48002619D01*
X142759047Y-48078809D01*
X142835238Y-48116904D01*
X142911428Y-48116904D01*
X139082857Y-48933571D02*
X139273333Y-49466904D01*
X139463809Y-48933571D01*
X139882857Y-49466904D02*
X139806666Y-49428809D01*
X139768571Y-49390714D01*
X139730476Y-49314523D01*
X139730476Y-49085952D01*
X139768571Y-49009761D01*
X139806666Y-48971666D01*
X139882857Y-48933571D01*
X139997142Y-48933571D01*
X140073333Y-48971666D01*
X140111428Y-49009761D01*
X140149523Y-49085952D01*
X140149523Y-49314523D01*
X140111428Y-49390714D01*
X140073333Y-49428809D01*
X139997142Y-49466904D01*
X139882857Y-49466904D01*
X140606666Y-49466904D02*
X140530476Y-49428809D01*
X140492380Y-49352619D01*
X140492380Y-48666904D01*
X140797142Y-48933571D02*
X141101904Y-48933571D01*
X140911428Y-48666904D02*
X140911428Y-49352619D01*
X140949523Y-49428809D01*
X141025714Y-49466904D01*
X141101904Y-49466904D01*
X141711428Y-49466904D02*
X141711428Y-49047857D01*
X141673333Y-48971666D01*
X141597142Y-48933571D01*
X141444761Y-48933571D01*
X141368571Y-48971666D01*
X141711428Y-49428809D02*
X141635238Y-49466904D01*
X141444761Y-49466904D01*
X141368571Y-49428809D01*
X141330476Y-49352619D01*
X141330476Y-49276428D01*
X141368571Y-49200238D01*
X141444761Y-49162142D01*
X141635238Y-49162142D01*
X141711428Y-49124047D01*
X142435238Y-48933571D02*
X142435238Y-49581190D01*
X142397142Y-49657380D01*
X142359047Y-49695476D01*
X142282857Y-49733571D01*
X142168571Y-49733571D01*
X142092380Y-49695476D01*
X142435238Y-49428809D02*
X142359047Y-49466904D01*
X142206666Y-49466904D01*
X142130476Y-49428809D01*
X142092380Y-49390714D01*
X142054285Y-49314523D01*
X142054285Y-49085952D01*
X142092380Y-49009761D01*
X142130476Y-48971666D01*
X142206666Y-48933571D01*
X142359047Y-48933571D01*
X142435238Y-48971666D01*
X143120952Y-49428809D02*
X143044761Y-49466904D01*
X142892380Y-49466904D01*
X142816190Y-49428809D01*
X142778095Y-49352619D01*
X142778095Y-49047857D01*
X142816190Y-48971666D01*
X142892380Y-48933571D01*
X143044761Y-48933571D01*
X143120952Y-48971666D01*
X143159047Y-49047857D01*
X143159047Y-49124047D01*
X142778095Y-49200238D01*
D10*
X140517142Y-41092857D02*
X139831428Y-41092857D01*
X140174285Y-41092857D02*
X140174285Y-39892857D01*
X140060000Y-40064285D01*
X139945714Y-40178571D01*
X139831428Y-40235714D01*
X140974285Y-40007142D02*
X141031428Y-39950000D01*
X141145714Y-39892857D01*
X141431428Y-39892857D01*
X141545714Y-39950000D01*
X141602857Y-40007142D01*
X141660000Y-40121428D01*
X141660000Y-40235714D01*
X141602857Y-40407142D01*
X140917142Y-41092857D01*
X141660000Y-41092857D01*
X142002857Y-39892857D02*
X142402857Y-41092857D01*
X142802857Y-39892857D01*
X137351428Y-39892857D02*
X136780000Y-39892857D01*
X136722857Y-40464285D01*
X136780000Y-40407142D01*
X136894285Y-40350000D01*
X137180000Y-40350000D01*
X137294285Y-40407142D01*
X137351428Y-40464285D01*
X137408571Y-40578571D01*
X137408571Y-40864285D01*
X137351428Y-40978571D01*
X137294285Y-41035714D01*
X137180000Y-41092857D01*
X136894285Y-41092857D01*
X136780000Y-41035714D01*
X136722857Y-40978571D01*
X137751428Y-39892857D02*
X138151428Y-41092857D01*
X138551428Y-39892857D01*
D14*
G04 #@! TO.C,R11 *
X140390000Y-29160000D02*
X139390000Y-29160000D01*
X139390000Y-27800000D02*
X140390000Y-27800000D01*
G04 #@! TO.C,R6 *
X147740000Y-34470000D02*
X146740000Y-34470000D01*
X146740000Y-33110000D02*
X147740000Y-33110000D01*
G04 #@! TO.C,R8 *
X140480000Y-37900000D02*
X141480000Y-37900000D01*
X141480000Y-39260000D02*
X140480000Y-39260000D01*
G04 #@! TO.C,R7 *
X138030000Y-39260000D02*
X137030000Y-39260000D01*
X137030000Y-37900000D02*
X138030000Y-37900000D01*
G04 #@! TO.C,R4 *
X147740000Y-49560000D02*
X146740000Y-49560000D01*
X146740000Y-48200000D02*
X147740000Y-48200000D01*
G04 #@! TO.C,R5 *
X147740000Y-42040000D02*
X146740000Y-42040000D01*
X146740000Y-40680000D02*
X147740000Y-40680000D01*
G04 #@! TO.C,R12*
X144990000Y-45640000D02*
X144990000Y-46640000D01*
X143630000Y-46640000D02*
X143630000Y-45640000D01*
G04 #@! TO.C,R13*
X145050000Y-38090000D02*
X145050000Y-39090000D01*
X143690000Y-39090000D02*
X143690000Y-38090000D01*
G04 #@! TO.C,R1*
X146740000Y-42620000D02*
X147740000Y-42620000D01*
X147740000Y-43980000D02*
X146740000Y-43980000D01*
G04 #@! TO.C,R2*
X146740000Y-35050000D02*
X147740000Y-35050000D01*
X147740000Y-36410000D02*
X146740000Y-36410000D01*
G04 #@! TO.C,R14*
X145030000Y-30580000D02*
X145030000Y-31580000D01*
X143670000Y-31580000D02*
X143670000Y-30580000D01*
G04 #@! TO.C,C1 *
X139930000Y-36990000D02*
X139230000Y-36990000D01*
X139230000Y-35790000D02*
X139930000Y-35790000D01*
G04 #@! TO.C,R3*
X146780000Y-27500000D02*
X147780000Y-27500000D01*
X147780000Y-28860000D02*
X146780000Y-28860000D01*
G04 #@! TO.C,J3*
X151390000Y-26280000D02*
X151390000Y-23620000D01*
X137310000Y-26275000D02*
X151390000Y-26280000D01*
X136035000Y-23625000D02*
X151390000Y-23620000D01*
X136035000Y-26285000D02*
X136035000Y-23625000D01*
X137360000Y-26280000D02*
X136035000Y-26275000D01*
X143710000Y-26275000D02*
X143710000Y-23615000D01*
G04 #@! TO.C,Q2*
X157530000Y-42560000D02*
X158630000Y-42560000D01*
X157530000Y-42290000D02*
X157530000Y-42560000D01*
X156030000Y-42290000D02*
X157530000Y-42290000D01*
X157530000Y-48920000D02*
X160360000Y-48920000D01*
X157530000Y-49190000D02*
X157530000Y-48920000D01*
X156030000Y-49190000D02*
X157530000Y-49190000D01*
G04 #@! TO.C,Q5*
X156030000Y-41950000D02*
X157530000Y-41950000D01*
X157530000Y-41950000D02*
X157530000Y-41680000D01*
X157530000Y-41680000D02*
X160360000Y-41680000D01*
X156030000Y-35050000D02*
X157530000Y-35050000D01*
X157530000Y-35050000D02*
X157530000Y-35320000D01*
X157530000Y-35320000D02*
X158630000Y-35320000D01*
G04 #@! TO.C,Q6*
X157530000Y-28080000D02*
X158630000Y-28080000D01*
X157530000Y-27810000D02*
X157530000Y-28080000D01*
X156030000Y-27810000D02*
X157530000Y-27810000D01*
X157530000Y-34440000D02*
X160360000Y-34440000D01*
X157530000Y-34710000D02*
X157530000Y-34440000D01*
X156030000Y-34710000D02*
X157530000Y-34710000D01*
G04 #@! TO.C,Q1 *
X148000000Y-47690000D02*
X146540000Y-47690000D01*
X148000000Y-44530000D02*
X145840000Y-44530000D01*
X148000000Y-44530000D02*
X148000000Y-45460000D01*
X148000000Y-47690000D02*
X148000000Y-46760000D01*
D12*
G04 #@! TO.C,U1*
X141263607Y-35260000D02*
G75*
G03X141263607Y-35260000I-223607J0D01*
G01*
X137940000Y-34860000D02*
X141140000Y-34860000D01*
X137940000Y-29860000D02*
X141140000Y-29860000D01*
X141140000Y-34860000D02*
X141140000Y-29860000D01*
X137940000Y-34860000D02*
X137940000Y-29860000D01*
D14*
G04 #@! TO.C,Q3 *
X148000000Y-40135000D02*
X148000000Y-39205000D01*
X148000000Y-36975000D02*
X148000000Y-37905000D01*
X148000000Y-36975000D02*
X145840000Y-36975000D01*
X148000000Y-40135000D02*
X146540000Y-40135000D01*
G04 #@! TO.C,Q4 *
X148000000Y-32580000D02*
X146540000Y-32580000D01*
X148000000Y-29420000D02*
X145840000Y-29420000D01*
X148000000Y-29420000D02*
X148000000Y-30350000D01*
X148000000Y-32580000D02*
X148000000Y-31650000D01*
G04 #@! TD*
M02*
