M48
;DRILL file {KiCad (5.0.0)} date 05/23/20 19:44:22
;FORMAT={-:-/ absolute / inch / decimal}
FMAT,2
INCH,TZ
T1C0.0118
T2C0.0157
T3C0.0394
T4C0.0669
T5C0.0787
%
G90
G05
M72
T1
X6.3467Y-1.1335
X6.386Y-1.1335
X6.3663Y-1.1531
X6.3467Y-1.1138
X6.3467Y-1.4193
X6.386Y-1.439
X6.3467Y-1.1531
X6.3392Y-1.7276
X6.3663Y-1.3996
X6.386Y-1.1531
X6.3392Y-1.7079
X6.3663Y-1.439
X6.3467Y-1.3996
X6.386Y-1.1138
X6.3589Y-1.7079
X6.3785Y-1.7276
X6.3467Y-1.439
X6.3392Y-1.6882
X6.3785Y-1.6882
X6.3663Y-1.1335
X6.3663Y-1.1138
X6.3589Y-1.6882
X6.386Y-1.3996
X6.3785Y-1.7079
X6.3663Y-1.4193
X6.386Y-1.4193
X6.3589Y-1.7276
T2
X5.6079Y-1.1531
X5.6815Y-1.9248
X5.6827Y-1.628
X5.6835Y-1.3264
X5.6846Y-1.0969
X5.8008Y-1.263
X5.8008Y-1.5626
X5.8024Y-1.8591
T3
X5.4079Y-0.9823
X5.5079Y-0.9823
X5.6079Y-0.9823
X5.7079Y-0.9823
X5.8079Y-0.9823
X5.9079Y-0.9823
X5.4118Y-1.6791
X5.4118Y-1.7791
X5.5606Y-1.6791
X5.5606Y-1.7791
T4
X6.1077Y-0.9839
X6.2636Y-0.9839
X6.4827Y-1.1142
X6.4827Y-1.2701
X6.4827Y-1.426
X6.4827Y-1.5819
X6.4827Y-1.7378
X6.4827Y-1.8937
T5
X5.3945Y-1.9067
X6.5941Y-0.9689
T0
M30
