G04 #@! TF.GenerationSoftware,KiCad,Pcbnew,(5.0.0)*
G04 #@! TF.CreationDate,2020-05-23T19:44:18-07:00*
G04 #@! TF.ProjectId,WS2811 Expander,57533238313120457870616E6465722E,rev?*
G04 #@! TF.SameCoordinates,Original*
G04 #@! TF.FileFunction,Copper,L1,Top,Signal*
G04 #@! TF.FilePolarity,Positive*
%FSLAX46Y46*%
G04 Gerber Fmt 4.6, Leading zero omitted, Abs format (unit mm)*
G04 Created by KiCad (PCBNEW (5.0.0)) date 05/23/20 19:44:18*
%MOMM*%
%LPD*%
G01*
G04 APERTURE LIST*
G04 #@! TA.AperFunction,ViaPad*
%ADD10C,0.600000*%
G04 #@! TD*
G04 #@! TA.AperFunction,SMDPad,CuDef*
%ADD11R,0.500000X0.900000*%
G04 #@! TD*
G04 #@! TA.AperFunction,SMDPad,CuDef*
%ADD12R,0.900000X0.500000*%
G04 #@! TD*
G04 #@! TA.AperFunction,SMDPad,CuDef*
%ADD13R,0.800000X0.750000*%
G04 #@! TD*
G04 #@! TA.AperFunction,ComponentPad*
%ADD14R,1.700000X1.700000*%
G04 #@! TD*
G04 #@! TA.AperFunction,ComponentPad*
%ADD15O,1.700000X1.700000*%
G04 #@! TD*
G04 #@! TA.AperFunction,SMDPad,CuDef*
%ADD16R,3.050000X2.750000*%
G04 #@! TD*
G04 #@! TA.AperFunction,SMDPad,CuDef*
%ADD17R,6.400000X5.800000*%
G04 #@! TD*
G04 #@! TA.AperFunction,SMDPad,CuDef*
%ADD18R,2.200000X1.200000*%
G04 #@! TD*
G04 #@! TA.AperFunction,ComponentPad*
%ADD19C,3.000000*%
G04 #@! TD*
G04 #@! TA.AperFunction,SMDPad,CuDef*
%ADD20R,0.900000X0.800000*%
G04 #@! TD*
G04 #@! TA.AperFunction,SMDPad,CuDef*
%ADD21R,1.100000X0.500000*%
G04 #@! TD*
G04 #@! TA.AperFunction,ViaPad*
%ADD22C,3.000000*%
G04 #@! TD*
G04 #@! TA.AperFunction,ViaPad*
%ADD23C,0.800000*%
G04 #@! TD*
G04 #@! TA.AperFunction,Conductor*
%ADD24C,2.000000*%
G04 #@! TD*
G04 #@! TA.AperFunction,Conductor*
%ADD25C,0.500000*%
G04 #@! TD*
G04 #@! TA.AperFunction,Conductor*
%ADD26C,0.250000*%
G04 #@! TD*
G04 APERTURE END LIST*
D10*
G04 #@! TO.N,N/C*
G04 #@! TO.C,REF\002A\002A*
X161015000Y-43880000D03*
G04 #@! TD*
G04 #@! TO.N,N/C*
G04 #@! TO.C,REF\002A\002A*
X161515000Y-43380000D03*
G04 #@! TD*
G04 #@! TO.N,N/C*
G04 #@! TO.C,REF\002A\002A*
X162015000Y-42880000D03*
G04 #@! TD*
G04 #@! TO.N,N/C*
G04 #@! TO.C,REF\002A\002A*
X162015000Y-43380000D03*
G04 #@! TD*
G04 #@! TO.N,N/C*
G04 #@! TO.C,REF\002A\002A*
X161515000Y-43880000D03*
G04 #@! TD*
G04 #@! TO.N,N/C*
G04 #@! TO.C,REF\002A\002A*
X161015000Y-43380000D03*
G04 #@! TD*
G04 #@! TO.N,N/C*
G04 #@! TO.C,REF\002A\002A*
X161515000Y-42880000D03*
G04 #@! TD*
G04 #@! TO.N,N/C*
G04 #@! TO.C,REF\002A\002A*
X161015000Y-42880000D03*
G04 #@! TD*
G04 #@! TO.N,N/C*
G04 #@! TO.C,REF\002A\002A*
X162015000Y-43880000D03*
G04 #@! TD*
G04 #@! TO.N,N/C*
G04 #@! TO.C,REF\002A\002A*
X161205000Y-36050000D03*
G04 #@! TD*
G04 #@! TO.N,N/C*
G04 #@! TO.C,REF\002A\002A*
X161705000Y-35550000D03*
G04 #@! TD*
G04 #@! TO.N,N/C*
G04 #@! TO.C,REF\002A\002A*
X162205000Y-36550000D03*
G04 #@! TD*
G04 #@! TO.N,N/C*
G04 #@! TO.C,REF\002A\002A*
X162205000Y-36050000D03*
G04 #@! TD*
G04 #@! TO.N,N/C*
G04 #@! TO.C,REF\002A\002A*
X161205000Y-36550000D03*
G04 #@! TD*
G04 #@! TO.N,N/C*
G04 #@! TO.C,REF\002A\002A*
X162205000Y-35550000D03*
G04 #@! TD*
G04 #@! TO.N,N/C*
G04 #@! TO.C,REF\002A\002A*
X161705000Y-36550000D03*
G04 #@! TD*
G04 #@! TO.N,N/C*
G04 #@! TO.C,REF\002A\002A*
X161705000Y-36050000D03*
G04 #@! TD*
G04 #@! TO.N,N/C*
G04 #@! TO.C,REF\002A\002A*
X161205000Y-35550000D03*
G04 #@! TD*
G04 #@! TO.N,N/C*
G04 #@! TO.C,REF\002A\002A*
X162205000Y-29290000D03*
G04 #@! TD*
G04 #@! TO.N,N/C*
G04 #@! TO.C,REF\002A\002A*
X161705000Y-29290000D03*
G04 #@! TD*
G04 #@! TO.N,N/C*
G04 #@! TO.C,REF\002A\002A*
X161205000Y-29290000D03*
G04 #@! TD*
G04 #@! TO.N,N/C*
G04 #@! TO.C,REF\002A\002A*
X162205000Y-28790000D03*
G04 #@! TD*
G04 #@! TO.N,N/C*
G04 #@! TO.C,REF\002A\002A*
X161705000Y-28790000D03*
G04 #@! TD*
G04 #@! TO.N,N/C*
G04 #@! TO.C,REF\002A\002A*
X161205000Y-28790000D03*
G04 #@! TD*
G04 #@! TO.N,N/C*
G04 #@! TO.C,REF\002A\002A*
X162205000Y-28290000D03*
G04 #@! TD*
G04 #@! TO.N,N/C*
G04 #@! TO.C,REF\002A\002A*
X161705000Y-28290000D03*
G04 #@! TD*
G04 #@! TO.N,N/C*
G04 #@! TO.C,REF\002A\002A*
X161205000Y-28290000D03*
G04 #@! TD*
D11*
G04 #@! TO.P,R11 ,1*
G04 #@! TO.N,Net-(R11-Pad1)*
X139140000Y-28480000D03*
G04 #@! TO.P,R11 ,2*
G04 #@! TO.N,/DIN*
X140640000Y-28480000D03*
G04 #@! TD*
G04 #@! TO.P,R6 ,1*
G04 #@! TO.N,/VCC*
X146490000Y-33790000D03*
G04 #@! TO.P,R6 ,2*
G04 #@! TO.N,Net-(Q4-Pad3)*
X147990000Y-33790000D03*
G04 #@! TD*
G04 #@! TO.P,R8 ,1*
G04 #@! TO.N,Net-(R10-Pad2)*
X141730000Y-38580000D03*
G04 #@! TO.P,R8 ,2*
G04 #@! TO.N,Net-(C1-Pad1)*
X140230000Y-38580000D03*
G04 #@! TD*
G04 #@! TO.P,R7 ,1*
G04 #@! TO.N,Net-(R7-Pad1)*
X136780000Y-38580000D03*
G04 #@! TO.P,R7 ,2*
G04 #@! TO.N,Net-(C1-Pad1)*
X138280000Y-38580000D03*
G04 #@! TD*
G04 #@! TO.P,R4 ,1*
G04 #@! TO.N,/VCC*
X146490000Y-48880000D03*
G04 #@! TO.P,R4 ,2*
G04 #@! TO.N,Net-(Q1-Pad3)*
X147990000Y-48880000D03*
G04 #@! TD*
G04 #@! TO.P,R5 ,1*
G04 #@! TO.N,/VCC*
X146490000Y-41360000D03*
G04 #@! TO.P,R5 ,2*
G04 #@! TO.N,Net-(Q3-Pad3)*
X147990000Y-41360000D03*
G04 #@! TD*
D12*
G04 #@! TO.P,R12,1*
G04 #@! TO.N,/VCC*
X144310000Y-46890000D03*
G04 #@! TO.P,R12,2*
G04 #@! TO.N,/OUTR*
X144310000Y-45390000D03*
G04 #@! TD*
G04 #@! TO.P,R13,1*
G04 #@! TO.N,/VCC*
X144370000Y-39340000D03*
G04 #@! TO.P,R13,2*
G04 #@! TO.N,/OUTG*
X144370000Y-37840000D03*
G04 #@! TD*
D11*
G04 #@! TO.P,R1,1*
G04 #@! TO.N,Net-(Q1-Pad1)*
X147990000Y-43300000D03*
G04 #@! TO.P,R1,2*
G04 #@! TO.N,/OUTR*
X146490000Y-43300000D03*
G04 #@! TD*
G04 #@! TO.P,R2,1*
G04 #@! TO.N,Net-(Q3-Pad1)*
X147990000Y-35730000D03*
G04 #@! TO.P,R2,2*
G04 #@! TO.N,/OUTG*
X146490000Y-35730000D03*
G04 #@! TD*
D12*
G04 #@! TO.P,R14,1*
G04 #@! TO.N,/VCC*
X144350000Y-31830000D03*
G04 #@! TO.P,R14,2*
G04 #@! TO.N,/OUTB*
X144350000Y-30330000D03*
G04 #@! TD*
D13*
G04 #@! TO.P,C1 ,2*
G04 #@! TO.N,/GND*
X140330000Y-36390000D03*
G04 #@! TO.P,C1 ,1*
G04 #@! TO.N,Net-(C1-Pad1)*
X138830000Y-36390000D03*
G04 #@! TD*
D11*
G04 #@! TO.P,R3,1*
G04 #@! TO.N,Net-(Q4-Pad1)*
X148030000Y-28180000D03*
G04 #@! TO.P,R3,2*
G04 #@! TO.N,/OUTB*
X146530000Y-28180000D03*
G04 #@! TD*
D14*
G04 #@! TO.P,J3,1*
G04 #@! TO.N,/DOUT*
X137360000Y-24950000D03*
D15*
G04 #@! TO.P,J3,2*
G04 #@! TO.N,/VCC*
X139900000Y-24950000D03*
G04 #@! TO.P,J3,3*
G04 #@! TO.N,/GND*
X142440000Y-24950000D03*
G04 #@! TO.P,J3,4*
G04 #@! TO.N,/DIN*
X144980000Y-24950000D03*
G04 #@! TO.P,J3,5*
G04 #@! TO.N,/VCC*
X147520000Y-24950000D03*
G04 #@! TO.P,J3,6*
G04 #@! TO.N,/GND*
X150060000Y-24950000D03*
G04 #@! TD*
D14*
G04 #@! TO.P, R10,1*
G04 #@! TO.N,/VCC*
X141240000Y-45190000D03*
D15*
G04 #@! TO.P, R10,2*
G04 #@! TO.N,Net-(R10-Pad2)*
X141240000Y-42650000D03*
G04 #@! TD*
D14*
G04 #@! TO.P,R9 ,1*
G04 #@! TO.N,/VCC*
X137460000Y-45190000D03*
D15*
G04 #@! TO.P,R9 ,2*
G04 #@! TO.N,Net-(R7-Pad1)*
X137460000Y-42650000D03*
G04 #@! TD*
D16*
G04 #@! TO.P,Q2,4*
G04 #@! TO.N,N/C*
X154635000Y-44215000D03*
X151285000Y-47265000D03*
X154635000Y-47265000D03*
X151285000Y-44215000D03*
D17*
X152960000Y-45740000D03*
D18*
G04 #@! TO.P,Q2,3*
G04 #@! TO.N,/GND*
X159260000Y-43460000D03*
G04 #@! TO.P,Q2,1*
G04 #@! TO.N,Net-(Q1-Pad3)*
X159260000Y-48020000D03*
G04 #@! TD*
G04 #@! TO.P,Q5,1*
G04 #@! TO.N,Net-(Q3-Pad3)*
X159260000Y-40780000D03*
G04 #@! TO.P,Q5,3*
G04 #@! TO.N,/GND*
X159260000Y-36220000D03*
D17*
G04 #@! TO.P,Q5,4*
G04 #@! TO.N,N/C*
X152960000Y-38500000D03*
D16*
X151285000Y-36975000D03*
X154635000Y-40025000D03*
X151285000Y-40025000D03*
X154635000Y-36975000D03*
G04 #@! TD*
G04 #@! TO.P,Q6,4*
G04 #@! TO.N,N/C*
X154635000Y-29735000D03*
X151285000Y-32785000D03*
X154635000Y-32785000D03*
X151285000Y-29735000D03*
D17*
X152960000Y-31260000D03*
D18*
G04 #@! TO.P,Q6,3*
G04 #@! TO.N,/GND*
X159260000Y-28980000D03*
G04 #@! TO.P,Q6,1*
G04 #@! TO.N,Net-(Q4-Pad3)*
X159260000Y-33540000D03*
G04 #@! TD*
D19*
G04 #@! TO.P,J2 ,6*
G04 #@! TO.N,/VCC*
X164660000Y-28300000D03*
G04 #@! TO.P,J2 ,5*
G04 #@! TO.N,/LED3*
X164660000Y-32260000D03*
G04 #@! TO.P,J2 ,4*
G04 #@! TO.N,/VCC*
X164660000Y-36220000D03*
G04 #@! TO.P,J2 ,3*
G04 #@! TO.N,/LED2*
X164660000Y-40180000D03*
G04 #@! TO.P,J2 ,2*
G04 #@! TO.N,/VCC*
X164660000Y-44140000D03*
G04 #@! TO.P,J2 ,1*
G04 #@! TO.N,/LED1*
X164660000Y-48100000D03*
G04 #@! TD*
G04 #@! TO.P,J1 ,2*
G04 #@! TO.N,/GND*
X155135000Y-24990000D03*
G04 #@! TO.P,J1 ,1*
G04 #@! TO.N,/VCC*
X159095000Y-24990000D03*
G04 #@! TD*
D20*
G04 #@! TO.P,Q1 ,3*
G04 #@! TO.N,Net-(Q1-Pad3)*
X148240000Y-46110000D03*
G04 #@! TO.P,Q1 ,2*
G04 #@! TO.N,/GND*
X146240000Y-47060000D03*
G04 #@! TO.P,Q1 ,1*
G04 #@! TO.N,Net-(Q1-Pad1)*
X146240000Y-45160000D03*
G04 #@! TD*
D21*
G04 #@! TO.P,U1,4*
G04 #@! TO.N,/GND*
X142140000Y-30455000D03*
G04 #@! TO.P,U1,5*
G04 #@! TO.N,/DOUT*
X136940000Y-30455000D03*
G04 #@! TO.P,U1,3*
G04 #@! TO.N,/OUTB*
X142140000Y-31725000D03*
G04 #@! TO.P,U1,2*
G04 #@! TO.N,/OUTG*
X142140000Y-32995000D03*
G04 #@! TO.P,U1,1*
G04 #@! TO.N,/OUTR*
X142140000Y-34265000D03*
G04 #@! TO.P,U1,6*
G04 #@! TO.N,Net-(R11-Pad1)*
X136940000Y-31725000D03*
G04 #@! TO.P,U1,7*
G04 #@! TO.N,Net-(U1-Pad7)*
X136940000Y-32995000D03*
G04 #@! TO.P,U1,8*
G04 #@! TO.N,Net-(C1-Pad1)*
X136940000Y-34265000D03*
G04 #@! TD*
D20*
G04 #@! TO.P,Q3 ,1*
G04 #@! TO.N,Net-(Q3-Pad1)*
X146240000Y-37605000D03*
G04 #@! TO.P,Q3 ,2*
G04 #@! TO.N,/GND*
X146240000Y-39505000D03*
G04 #@! TO.P,Q3 ,3*
G04 #@! TO.N,Net-(Q3-Pad3)*
X148240000Y-38555000D03*
G04 #@! TD*
G04 #@! TO.P,Q4 ,3*
G04 #@! TO.N,Net-(Q4-Pad3)*
X148240000Y-31000000D03*
G04 #@! TO.P,Q4 ,2*
G04 #@! TO.N,/GND*
X146240000Y-31950000D03*
G04 #@! TO.P,Q4 ,1*
G04 #@! TO.N,Net-(Q4-Pad1)*
X146240000Y-30050000D03*
G04 #@! TD*
D22*
G04 #@! TO.N,*
X167490000Y-24610000D03*
X137020000Y-48430000D03*
D23*
G04 #@! TO.N,/GND*
X142440000Y-29290000D03*
X147380000Y-47220000D03*
X147340000Y-39690000D03*
X147340000Y-32080000D03*
G04 #@! TO.N,/VCC*
X144310000Y-48890000D03*
X144340000Y-41350000D03*
X144360000Y-33690000D03*
X144390000Y-27860000D03*
G04 #@! TD*
D24*
G04 #@! TO.N,/GND*
X159260000Y-43460000D02*
X161720000Y-43470000D01*
X159260000Y-36220000D02*
X161700000Y-36210000D01*
X159260000Y-28980000D02*
X161700000Y-28940000D01*
D25*
X142140000Y-30455000D02*
X142440000Y-29290000D01*
D26*
X147380000Y-47220000D02*
X146240000Y-47060000D01*
X147340000Y-39690000D02*
X146240000Y-39505000D01*
X147340000Y-32080000D02*
X146240000Y-31950000D01*
D25*
X140580000Y-36390000D02*
X140580000Y-31150000D01*
X140580000Y-31150000D02*
X142140000Y-30455000D01*
G04 #@! TO.N,Net-(C1-Pad1)*
X136940000Y-34265000D02*
X138580000Y-36390000D01*
X138580000Y-36390000D02*
X138480000Y-38610000D01*
X138480000Y-38580000D02*
X140030000Y-38580000D01*
D24*
G04 #@! TO.N,/LED1*
X161520000Y-45970000D02*
X159260000Y-45740000D01*
X164660000Y-48100000D02*
X161520000Y-45970000D01*
X159260000Y-45740000D02*
X152960000Y-46790001D01*
D26*
G04 #@! TO.N,Net-(Q1-Pad3)*
X157270000Y-49400000D02*
X159260000Y-48020000D01*
X149520000Y-49410000D02*
X157270000Y-49400000D01*
X148240000Y-46110000D02*
X148190000Y-48880000D01*
X148190000Y-48880000D02*
X149520000Y-49410000D01*
G04 #@! TO.N,Net-(Q1-Pad1)*
X147620000Y-44770000D02*
X146240000Y-45160000D01*
X147620000Y-44770000D02*
X148190000Y-43300000D01*
D25*
G04 #@! TO.N,Net-(R7-Pad1)*
X136580000Y-38580000D02*
X136530000Y-41390000D01*
X136530000Y-41390000D02*
X137460000Y-42650000D01*
G04 #@! TO.N,Net-(R10-Pad2)*
X141930000Y-38580000D02*
X141920000Y-41550000D01*
X141920000Y-41550000D02*
X141240000Y-42650000D01*
D26*
G04 #@! TO.N,Net-(Q3-Pad1)*
X147570000Y-37170000D02*
X146240000Y-37605000D01*
X148190000Y-35730000D02*
X147570000Y-37170000D01*
G04 #@! TO.N,Net-(Q3-Pad3)*
X157520000Y-42120000D02*
X149560000Y-42120000D01*
X159260000Y-40780000D02*
X157520000Y-42120000D01*
X148240000Y-38555000D02*
X148190000Y-41360000D01*
X148190000Y-41360000D02*
X149560000Y-42120000D01*
G04 #@! TO.N,Net-(Q4-Pad3)*
X157010000Y-34870000D02*
X149550000Y-34870000D01*
X159260000Y-33540000D02*
X157010000Y-34870000D01*
X148240000Y-31000000D02*
X148190000Y-33790000D01*
X148190000Y-33790000D02*
X149550000Y-34870000D01*
G04 #@! TO.N,Net-(Q4-Pad1)*
X146240000Y-30050000D02*
X147480000Y-29520000D01*
X148230000Y-28180000D02*
X147480000Y-29520000D01*
D24*
G04 #@! TO.N,/LED2*
X161810000Y-38860000D02*
X159260000Y-38500000D01*
X164660000Y-40180000D02*
X161810000Y-38860000D01*
X159260000Y-38500000D02*
X152960000Y-38500000D01*
G04 #@! TO.N,/LED3*
X161700000Y-31360000D02*
X159260000Y-31260000D01*
X164660000Y-32260000D02*
X161700000Y-31360000D01*
X159260000Y-31260000D02*
X152960000Y-31260000D01*
G04 #@! TO.N,/VCC*
X167650000Y-42430000D02*
X167700000Y-38150000D01*
X167650000Y-34270000D02*
X167720000Y-30800000D01*
X164660000Y-28300000D02*
X167720000Y-30800000D01*
X167650000Y-34270000D02*
X164660000Y-36220000D01*
X164660000Y-36220000D02*
X167700000Y-38150000D01*
X167650000Y-42430000D02*
X164660000Y-44140000D01*
X159095000Y-24990000D02*
X162740000Y-25020000D01*
X162740000Y-25020000D02*
X164660000Y-28300000D01*
D25*
X140670000Y-23535010D02*
X146920000Y-23535010D01*
X140670000Y-23535010D02*
X139900000Y-24950000D01*
X146920000Y-23535010D02*
X147520000Y-24950000D01*
X147520000Y-24950000D02*
X147560000Y-26755774D01*
D26*
X144310000Y-48890000D02*
X146290000Y-48880000D01*
X144340000Y-41350000D02*
X146290000Y-41360000D01*
X144310000Y-48890000D02*
X144310000Y-47090000D01*
X144360000Y-33690000D02*
X146290000Y-33790000D01*
D25*
X145700000Y-26730000D02*
X147560000Y-26755774D01*
X144940000Y-26750000D02*
X145700000Y-26730000D01*
X144390000Y-27860000D02*
X144940000Y-26750000D01*
D26*
X144370000Y-39540000D02*
X144340000Y-41350000D01*
X144350000Y-32030000D02*
X144360000Y-33690000D01*
D24*
X162740000Y-25020000D02*
X165416999Y-26533001D01*
X165416999Y-26533001D02*
X167720000Y-30800000D01*
D25*
X164660000Y-36220000D02*
X167675773Y-36270000D01*
D24*
X167650000Y-34270000D02*
X167675773Y-36270000D01*
X167675773Y-36270000D02*
X167700000Y-38150000D01*
D25*
X157510000Y-27150000D02*
X159095000Y-24990000D01*
X150500000Y-27210000D02*
X157510000Y-27150000D01*
X147560000Y-26755774D02*
X150030000Y-26790000D01*
X150030000Y-26790000D02*
X150500000Y-27210000D01*
D26*
G04 #@! TO.N,/DIN*
X140840000Y-28480000D02*
X144980000Y-24950000D01*
G04 #@! TO.N,/DOUT*
X137360000Y-24950000D02*
X136940000Y-30455000D01*
G04 #@! TO.N,Net-(R11-Pad1)*
X138940000Y-28480000D02*
X138950000Y-30760000D01*
X138950000Y-30760000D02*
X138210000Y-31640000D01*
X138210000Y-31640000D02*
X136940000Y-31725000D01*
G04 #@! TO.N,/OUTR*
X143010000Y-37120000D02*
X143050000Y-43660000D01*
X143010000Y-37120000D02*
X142210000Y-36310000D01*
X142210000Y-36310000D02*
X142140000Y-34265000D01*
X143050000Y-43660000D02*
X144310000Y-45190000D01*
X144310000Y-45190000D02*
X145220000Y-43790000D01*
X145220000Y-43790000D02*
X146290000Y-43300000D01*
G04 #@! TO.N,/OUTG*
X144370000Y-37640000D02*
X145350000Y-36020000D01*
X142140000Y-32995000D02*
X143360000Y-33550000D01*
X143360000Y-33550000D02*
X143430000Y-36250000D01*
X143430000Y-36250000D02*
X144370000Y-37640000D01*
X145350000Y-36020000D02*
X146290000Y-35730000D01*
G04 #@! TO.N,/OUTB*
X144350000Y-30130000D02*
X145020000Y-28450000D01*
X144350000Y-30130000D02*
X142140000Y-31725000D01*
X145020000Y-28450000D02*
X146330000Y-28180000D01*
G04 #@! TD*
M02*
