<?xml version="1.0" encoding="UTF-8" standalone="no"?>
<svg
   xmlns:dc="http://purl.org/dc/elements/1.1/"
   xmlns:cc="http://creativecommons.org/ns#"
   xmlns:rdf="http://www.w3.org/1999/02/22-rdf-syntax-ns#"
   xmlns:svg="http://www.w3.org/2000/svg"
   xmlns="http://www.w3.org/2000/svg"
   xmlns:sodipodi="http://sodipodi.sourceforge.net/DTD/sodipodi-0.dtd"
   xmlns:inkscape="http://www.inkscape.org/namespaces/inkscape"
   version="1.1"
   width="3.3131001cm"
   height="3.1518555cm"
   viewBox="0 0 13043.702 12408.88"
   id="svg1107"
   sodipodi:docname="WS2811 Expander-F.Paste.svg"
   inkscape:version="0.92.2 (5c3e80d, 2017-08-06)">
  <metadata
     id="metadata1113">
    <rdf:RDF>
      <cc:Work
         rdf:about="">
        <dc:format>image/svg+xml</dc:format>
        <dc:type
           rdf:resource="http://purl.org/dc/dcmitype/StillImage" />
      </cc:Work>
    </rdf:RDF>
  </metadata>
  <defs
     id="defs1111" />
  <sodipodi:namedview
     pagecolor="#ffffff"
     bordercolor="#666666"
     borderopacity="1"
     objecttolerance="10"
     gridtolerance="10"
     guidetolerance="10"
     inkscape:pageopacity="0"
     inkscape:pageshadow="2"
     inkscape:window-width="2560"
     inkscape:window-height="1361"
     id="namedview1109"
     showgrid="false"
     inkscape:zoom="8.040311"
     inkscape:cx="71.339248"
     inkscape:cy="69.295826"
     inkscape:window-x="1591"
     inkscape:window-y="-9"
     inkscape:window-maximized="1"
     inkscape:current-layer="svg1107" />
  <title
     id="title965">SVG Picture created as WS2811 Expander-F.Paste.svg date 2019/03/28 11:15:15 </title>
  <desc
     id="desc967">Picture generated by PCBNEW </desc>
  <g
     style="fill:#000000;fill-opacity:1;stroke:#000000;stroke-linecap:round;stroke-linejoin:round;stroke-opacity:1"
     id="g969"
     transform="translate(912.09701,408.11666)" />
  <g
     style="fill:#000000;fill-opacity:0;stroke:#000000;stroke-width:-0.0003937;stroke-linecap:round;stroke-linejoin:round;stroke-opacity:1"
     id="g971"
     transform="translate(912.09701,408.11666)" />
  <g
     style="fill:#840000;fill-opacity:0;stroke:#840000;stroke-width:-0.0003937;stroke-linecap:round;stroke-linejoin:round;stroke-opacity:1"
     id="g973"
     transform="translate(912.09701,408.11666)" />
  <g
     style="fill:#840000;fill-opacity:0;stroke:#840000;stroke-width:0;stroke-linecap:round;stroke-linejoin:round;stroke-opacity:1"
     id="g975"
     transform="translate(912.09701,408.11666)" />
  <g
     style="fill:#840000;fill-opacity:1;stroke:#840000;stroke-width:0;stroke-linecap:round;stroke-linejoin:round;stroke-opacity:1"
     id="g1105"
     transform="translate(912.09701,408.11666)">
    <polyline
       style="fill-rule:evenodd"
       points="1269,2438 1269,1927 1545,1927 1545,2438 1269,2438 "
       id="polyline977" />
    <polyline
       style="fill-rule:evenodd"
       points="2017,2438 2017,1927 2293,1927 2293,2438 2017,2438 "
       id="polyline979" />
    <polyline
       style="fill-rule:evenodd"
       points="2722,5903 2722,6415 2446,6415 2446,5903 2722,5903 "
       id="polyline981" />
    <polyline
       style="fill-rule:evenodd"
       points="1974,5903 1974,6415 1698,6415 1698,5903 1974,5903 "
       id="polyline983" />
    <polyline
       style="fill-rule:evenodd"
       points="340,6427 340,5915 616,5915 616,6427 340,6427 "
       id="polyline985" />
    <polyline
       style="fill-rule:evenodd"
       points="1088,6427 1088,5915 1364,5915 1364,6427 1088,6427 "
       id="polyline987" />
    <polyline
       style="fill-rule:evenodd"
       points="4163,10470 4163,9958 4439,9958 4439,10470 4163,10470 "
       id="polyline989" />
    <polyline
       style="fill-rule:evenodd"
       points="4911,10470 4911,9958 5187,9958 5187,10470 4911,10470 "
       id="polyline991" />
    <polyline
       style="fill-rule:evenodd"
       points="4163,7509 4163,6998 4439,6998 4439,7509 4163,7509 "
       id="polyline993" />
    <polyline
       style="fill-rule:evenodd"
       points="4911,7509 4911,6998 5187,6998 5187,7509 4911,7509 "
       id="polyline995" />
    <polyline
       style="fill-rule:evenodd"
       points="4163,4529 4163,4017 4439,4017 4439,4529 4163,4529 "
       id="polyline997" />
    <polyline
       style="fill-rule:evenodd"
       points="4911,4529 4911,4017 5187,4017 5187,4529 4911,4529 "
       id="polyline999" />
    <polyline
       style="fill-rule:evenodd"
       points="1856,5543 1856,5051 2250,5051 2250,5543 1856,5543 "
       id="polyline1001" />
    <polyline
       style="fill-rule:evenodd"
       points="1068,5543 1068,5051 1462,5051 1462,5543 1068,5543 "
       id="polyline1003" />
    <polyline
       style="fill-rule:evenodd"
       points="4891,9281 4891,8966 5246,8966 5246,9281 4891,9281 "
       id="polyline1005" />
    <polyline
       style="fill-rule:evenodd"
       points="4104,9655 4104,9340 4458,9340 4458,9655 4104,9655 "
       id="polyline1007" />
    <polyline
       style="fill-rule:evenodd"
       points="4104,8907 4104,8592 4458,8592 4458,8907 4104,8907 "
       id="polyline1009" />
    <polyline
       style="fill-rule:evenodd"
       points="8187,7836 8187,8919 6986,8919 6986,7836 8187,7836 "
       id="polyline1011" />
    <polyline
       style="fill-rule:evenodd"
       points="6868,9037 6868,10120 5667,10120 5667,9037 6868,9037 "
       id="polyline1013" />
    <polyline
       style="fill-rule:evenodd"
       points="8187,9037 8187,10120 6986,10120 6986,9037 8187,9037 "
       id="polyline1015" />
    <polyline
       style="fill-rule:evenodd"
       points="6868,7836 6868,8919 5667,8919 5667,7836 6868,7836 "
       id="polyline1017" />
    <polyline
       style="fill-rule:evenodd"
       points="9840,7844 9840,8316 8974,8316 8974,7844 9840,7844 "
       id="polyline1019" />
    <polyline
       style="fill-rule:evenodd"
       points="9840,8742 9840,9214 8974,9214 8974,8742 9840,8742 "
       id="polyline1021" />
    <polyline
       style="fill-rule:evenodd"
       points="9840,9639 9840,10112 8974,10112 8974,9639 9840,9639 "
       id="polyline1023" />
    <polyline
       style="fill-rule:evenodd"
       points="2883,3059 2450,3059 2450,2862 2883,2862 2883,3059 "
       id="polyline1025" />
    <polyline
       style="fill-rule:evenodd"
       points="836,3059 403,3059 403,2862 836,2862 836,3059 "
       id="polyline1027" />
    <polyline
       style="fill-rule:evenodd"
       points="2883,3559 2450,3559 2450,3362 2883,3362 2883,3559 "
       id="polyline1029" />
    <polyline
       style="fill-rule:evenodd"
       points="2883,4059 2450,4059 2450,3862 2883,3862 2883,4059 "
       id="polyline1031" />
    <polyline
       style="fill-rule:evenodd"
       points="2883,4559 2450,4559 2450,4362 2883,4362 2883,4559 "
       id="polyline1033" />
    <polyline
       style="fill-rule:evenodd"
       points="836,3559 403,3559 403,3362 836,3362 836,3559 "
       id="polyline1035" />
    <polyline
       style="fill-rule:evenodd"
       points="836,4059 403,4059 403,3862 836,3862 836,4059 "
       id="polyline1037" />
    <polyline
       style="fill-rule:evenodd"
       points="836,4559 403,4559 403,4362 836,4362 836,4559 "
       id="polyline1039" />
    <polyline
       style="fill-rule:evenodd"
       points="4104,5933 4104,5618 4458,5618 4458,5933 4104,5933 "
       id="polyline1041" />
    <polyline
       style="fill-rule:evenodd"
       points="4104,6681 4104,6366 4458,6366 4458,6681 4104,6681 "
       id="polyline1043" />
    <polyline
       style="fill-rule:evenodd"
       points="4891,6307 4891,5992 5246,5992 5246,6307 4891,6307 "
       id="polyline1045" />
    <polyline
       style="fill-rule:evenodd"
       points="4891,3332 4891,3017 5246,3017 5246,3332 4891,3332 "
       id="polyline1047" />
    <polyline
       style="fill-rule:evenodd"
       points="4104,3706 4104,3391 4458,3391 4458,3706 4104,3706 "
       id="polyline1049" />
    <polyline
       style="fill-rule:evenodd"
       points="4104,2958 4104,2643 4458,2643 4458,2958 4104,2958 "
       id="polyline1051" />
    <polyline
       style="fill-rule:evenodd"
       points="9840,6789 9840,7261 8974,7261 8974,6789 9840,6789 "
       id="polyline1053" />
    <polyline
       style="fill-rule:evenodd"
       points="9840,5891 9840,6364 8974,6364 8974,5891 9840,5891 "
       id="polyline1055" />
    <polyline
       style="fill-rule:evenodd"
       points="9840,4994 9840,5466 8974,5466 8974,4994 9840,4994 "
       id="polyline1057" />
    <polyline
       style="fill-rule:evenodd"
       points="6868,4986 6868,6068 5667,6068 5667,4986 6868,4986 "
       id="polyline1059" />
    <polyline
       style="fill-rule:evenodd"
       points="8187,6187 8187,7269 6986,7269 6986,6187 8187,6187 "
       id="polyline1061" />
    <polyline
       style="fill-rule:evenodd"
       points="6868,6187 6868,7269 5667,7269 5667,6187 6868,6187 "
       id="polyline1063" />
    <polyline
       style="fill-rule:evenodd"
       points="8187,4986 8187,6068 6986,6068 6986,4986 8187,4986 "
       id="polyline1065" />
    <polyline
       style="fill-rule:evenodd"
       points="8187,2135 8187,3218 6986,3218 6986,2135 8187,2135 "
       id="polyline1067" />
    <polyline
       style="fill-rule:evenodd"
       points="6868,3336 6868,4419 5667,4419 5667,3336 6868,3336 "
       id="polyline1069" />
    <polyline
       style="fill-rule:evenodd"
       points="8187,3336 8187,4419 6986,4419 6986,3336 8187,3336 "
       id="polyline1071" />
    <polyline
       style="fill-rule:evenodd"
       points="6868,2135 6868,3218 5667,3218 5667,2135 6868,2135 "
       id="polyline1073" />
    <polyline
       style="fill-rule:evenodd"
       points="9840,2143 9840,2616 8974,2616 8974,2143 9840,2143 "
       id="polyline1075" />
    <polyline
       style="fill-rule:evenodd"
       points="9840,3041 9840,3513 8974,3513 8974,3041 9840,3041 "
       id="polyline1077" />
    <polyline
       style="fill-rule:evenodd"
       points="9840,3938 9840,4411 8974,4411 8974,3938 9840,3938 "
       id="polyline1079" />
    <polyline
       style="fill-rule:evenodd"
       points="3777,9647 3265,9647 3265,9372 3777,9372 3777,9647 "
       id="polyline1081" />
    <polyline
       style="fill-rule:evenodd"
       points="3777,8899 3265,8899 3265,8624 3777,8624 3777,8899 "
       id="polyline1083" />
    <polyline
       style="fill-rule:evenodd"
       points="3801,5927 3289,5927 3289,5651 3801,5651 3801,5927 "
       id="polyline1085" />
    <polyline
       style="fill-rule:evenodd"
       points="3801,6675 3289,6675 3289,6399 3801,6399 3801,6675 "
       id="polyline1087" />
    <polyline
       style="fill-rule:evenodd"
       points="3793,3718 3281,3718 3281,3442 3793,3442 3793,3718 "
       id="polyline1089" />
    <polyline
       style="fill-rule:evenodd"
       points="3793,2970 3281,2970 3281,2694 3793,2694 3793,2970 "
       id="polyline1091" />
    <polyline
       style="fill-rule:evenodd"
       points="5187,7761 5187,8273 4911,8273 4911,7761 5187,7761 "
       id="polyline1093" />
    <polyline
       style="fill-rule:evenodd"
       points="4439,7761 4439,8273 4163,8273 4163,7761 4439,7761 "
       id="polyline1095" />
    <polyline
       style="fill-rule:evenodd"
       points="5187,4781 5187,5293 4911,5293 4911,4781 5187,4781 "
       id="polyline1097" />
    <polyline
       style="fill-rule:evenodd"
       points="4439,4781 4439,5293 4163,5293 4163,4781 4439,4781 "
       id="polyline1099" />
    <polyline
       style="fill-rule:evenodd"
       points="4454,1809 4454,2320 4179,2320 4179,1809 4454,1809 "
       id="polyline1101" />
    <polyline
       style="fill-rule:evenodd"
       points="5202,1809 5202,2320 4927,2320 4927,1809 5202,1809 "
       id="polyline1103" />
  </g>
  <rect
     style="fill:none;fill-opacity:1;stroke:#000000;stroke-width:10.41666698;stroke-linejoin:round;stroke-miterlimit:4;stroke-dasharray:none;stroke-opacity:1"
     id="rect4804"
     width="13033.285"
     height="12398.464"
     x="5.2083335"
     y="5.2083335" />
</svg>
